<svg width="235" height="209" viewBox="0 0 235 209" fill="none" xmlns="http://www.w3.org/2000/svg">
<path d="M14.5061 16.3511L14.5167 16.3391L14.5277 16.3274C24.1489 6.11173 36.198 1 50.6041 1C63.1774 1 73.4511 4.59598 81.3283 11.8624L81.3304 11.8644C89.781 19.706 94.0222 29.391 94.0222 40.8571C94.0222 51.7799 88.862 62.8924 78.7626 74.1789C74.0937 80.0123 70.307 85.2516 67.3962 89.899C65.1217 95.0391 63.976 100.765 63.976 107.091C63.976 134.992 77.9313 163.012 106.101 191.163L106.831 191.892L106.079 192.599L91.0562 206.728L90.4439 207.304L89.7713 206.8C63.7637 187.308 42.4727 164.852 25.9088 139.433C9.31924 114.564 1 88.7648 1 62.0519C1 41.909 5.4436 26.615 14.5061 16.3511ZM141.112 16.3511L141.123 16.3391L141.134 16.3274C150.755 6.11173 162.804 1 177.21 1C189.783 1 200.057 4.59598 207.934 11.8624L207.936 11.8644C216.387 19.706 220.628 29.391 220.628 40.8571C220.628 51.7798 215.468 62.8924 205.368 74.1788C200.7 80.0123 196.913 85.2516 194.002 89.899C191.728 95.0391 190.582 100.765 190.582 107.091C190.582 134.992 204.537 163.012 232.707 191.163L233.436 191.892L232.685 192.599L217.662 206.728L217.05 207.304L216.377 206.8C190.37 187.308 169.079 164.852 152.515 139.433C135.925 114.564 127.606 88.7648 127.606 62.0519C127.606 41.909 132.049 26.615 141.112 16.3511Z" stroke="url(#paint0_linear_5_10276)" stroke-opacity="0.8" stroke-width="2"/>
<defs>
<linearGradient id="paint0_linear_5_10276" x1="117" y1="2" x2="117" y2="206" gradientUnits="userSpaceOnUse">
<stop offset="0.572917" stop-color="#70C3FF"/>
<stop offset="1" stop-color="#4BB0FA" stop-opacity="0"/>
</linearGradient>
</defs>
</svg>
