<svg width="100" height="108" viewBox="0 0 100 108" fill="none" xmlns="http://www.w3.org/2000/svg">
<g clip-path="url(#clip0_10_5034)" filter="url(#filter0_d_10_5034)">
<path d="M89.6262 34.2672C89.5403 33.6643 89.0901 33.1776 88.4957 33.0446C80.2202 31.1938 73.668 33.8003 70.4573 35.5501C69.8095 29.4712 68.2118 23.9276 65.6968 19.0413C63.4109 14.6001 60.3693 10.6951 56.6566 7.43454C50.3234 1.87245 44.2688 0.126556 44.0141 0.0550714C43.4188 -0.112311 42.7834 0.111712 42.4248 0.614835C42.066 1.11796 42.0617 1.79198 42.4135 2.29979C42.4258 2.31737 43.6352 4.17967 43.565 8.29C43.4385 15.7214 39.2518 24.0126 35.762 29.6596C31.4469 36.6418 29.459 42.4985 28.5665 45.9904C26.2161 43.3594 22.9616 41.5448 18.9856 40.6758C15.0609 39.818 11.8175 40.1793 11.6818 40.1952C11.0374 40.27 10.4939 40.7461 10.3824 41.3848C10.2716 42.0186 10.5624 42.6367 11.1341 42.9285C11.4296 43.1215 17.2648 47.1979 15.7216 64.5486C14.7671 75.2806 17.1638 83.8702 22.8446 90.0786C28.6141 96.3838 37.8951 100 48.3078 100C60.6587 100 69.8686 96.6857 75.6815 90.1491C79.6797 85.6532 84.0875 77.2495 82.3819 62.7458C81.6479 56.5049 81.4579 47.666 84.7194 41.0002C86.6332 37.0887 88.8731 35.7633 88.8826 35.7575C89.4162 35.4635 89.7121 34.8704 89.6262 34.2672ZM79.4725 63.0878C81.0512 76.5116 77.0921 84.1543 73.4925 88.202C71.5888 90.3426 69.2544 92.0975 66.5044 93.4664C66.9235 93.0614 67.3286 92.6404 67.7146 92.199C72.2737 86.986 74.2772 79.4516 73.2116 71.5282C71.3483 57.6732 73.0069 53.7463 73.1931 53.3611C73.6512 52.7994 73.5876 52.034 73.0923 51.4969C72.5891 50.9512 71.7149 50.9226 71.1132 51.3582L64.9859 55.7988C64.8415 54.85 64.6841 53.9109 64.515 52.9894C64.3689 52.1937 63.6066 51.6674 62.8097 51.8133C62.014 51.9594 61.4872 52.7228 61.6335 53.5185C61.9366 55.1685 62.2005 56.8781 62.4185 58.5994C62.4833 59.1128 62.8144 59.5539 63.2892 59.7595C63.764 59.965 64.312 59.9048 64.7314 59.6015L69.5983 56.0742C69.2626 59.0863 69.2442 64.0062 70.3085 71.9185C71.2614 79.0042 69.5122 85.6932 65.5097 90.2701C64.4855 91.4412 63.3171 92.4656 62.0195 93.3414C63.4288 90.711 63.9204 87.5592 63.4005 84.2186C63.2036 82.9546 62.9898 81.5178 62.7654 79.9483C62.6505 79.1473 61.9097 78.593 61.1077 78.7057C60.3068 78.8204 59.7507 79.5626 59.8652 80.3633C60.0915 81.9448 60.3072 83.3936 60.5056 84.6694C61.0484 88.1567 60.2568 91.3506 58.2767 93.6627C57.0712 95.0701 55.4947 96.0703 53.6845 96.609C51.9925 96.9143 50.1974 97.0701 48.3084 97.0701C44.1656 97.0701 40.0602 95.7135 36.7479 93.2498C33.0866 90.5268 30.6163 86.6266 29.6042 81.9712C29.4321 81.1807 28.652 80.6794 27.8614 80.851C27.071 81.0229 26.5694 81.8032 26.7413 82.5938C27.703 87.017 29.8202 90.8518 32.9135 93.8293C30.1098 92.5117 27.3591 90.6711 25.0069 88.1004C19.904 82.5235 17.7622 74.6868 18.6407 64.8076C19.3708 56.5961 18.6462 50.0527 16.487 45.3594C16.0767 44.468 15.6484 43.7227 15.2314 43.1035C18.9667 43.3768 25.0059 44.725 28.0475 50.3094C28.354 50.8721 28.9899 51.1697 29.6194 51.0455C30.2479 50.9205 30.7223 50.4016 30.7905 49.7643C30.7987 49.6859 31.7038 41.8002 38.2551 31.1997C46.9264 17.1689 47.0424 8.38473 46.0965 4.00252C48.2859 5.00974 51.4689 6.77731 54.724 9.6357C58.1599 12.6531 60.9755 16.2687 63.0927 20.3819C65.7519 25.5483 67.3155 31.5282 67.7403 38.1557C67.7749 38.6957 68.1044 39.1729 68.5974 39.3963C69.0903 39.6198 69.6663 39.5534 70.0952 39.2233C70.1614 39.1725 76.1659 34.651 84.8836 35.4379C81.8708 38.859 77.5538 46.7717 79.4725 63.0878Z" fill="white"/>
<path d="M62.9792 46.1732C61.0492 39.017 58.5867 33.9268 56.8609 30.9169C54.9586 27.5987 53.5023 25.987 53.4412 25.92C53.0648 25.5069 52.4853 25.3462 51.9494 25.5016C51.4129 25.6577 51.0113 26.1069 50.915 26.6573C50.9113 26.6778 50.5365 28.7655 49.0709 32.4217C47.7168 35.7991 45.1293 41.2428 40.491 47.9965C36.8252 53.3342 35.3133 58.1461 34.6924 61.3357C30.902 56.9019 26.9598 55.6984 26.7612 55.6398C26.2563 55.4914 25.7108 55.6259 25.3321 55.9914C24.9532 56.3564 24.7993 56.8976 24.929 57.4076C24.9456 57.4726 26.5763 64.0474 26.1638 75.7817C26.1352 76.5903 26.7677 77.2686 27.5761 77.2972C27.5936 77.2977 27.611 77.2981 27.6286 77.2981C28.4137 77.2981 29.0639 76.6757 29.0915 75.8849C29.3604 68.2333 28.7999 62.7378 28.3264 59.6335C28.4852 59.7326 28.6489 59.8388 28.8175 59.9529C30.3403 60.9835 32.5587 62.8742 34.478 66.0271C34.8225 66.5929 35.5053 66.8548 36.1405 66.6689C36.7766 66.4827 37.2084 65.8906 37.1936 65.2279C37.192 65.1575 37.1036 58.1045 42.9065 49.6553C49.0564 40.7002 51.8133 33.8932 52.9914 30.2133C54.856 33.0346 57.8734 38.493 60.1507 46.9361C60.3615 47.7172 61.1654 48.1797 61.9464 47.9689C62.7275 47.7582 63.19 46.9543 62.9792 46.1732Z" fill="white"/>
<path d="M61.3984 71.4042C60.8976 70.7686 59.9765 70.6589 59.3412 71.1591L56.564 73.3442C55.4851 69.8561 53.1125 62.9444 50.3017 59.4536C49.9947 59.0722 49.5185 58.8685 49.0297 58.9132C48.542 58.957 48.1084 59.2415 47.8744 59.6714C47.6367 60.1077 42.0225 70.4532 39.2414 78.8975C38.0817 82.4194 37.9489 86.2875 38.8678 89.7891C39.0405 90.4471 39.6338 90.8826 40.2836 90.8826C40.4067 90.8826 40.5319 90.867 40.6563 90.8342C41.4389 90.6289 41.9067 89.8281 41.7014 89.0457C40.9242 86.0842 41.0389 82.8057 42.0242 79.8139C43.983 73.8661 47.5098 66.7271 49.3152 63.2247C52.1203 68.087 54.3314 76.1253 54.3566 76.218C54.4859 76.6921 54.8441 77.0696 55.3105 77.2237C55.7769 77.3778 56.2898 77.2878 56.6757 76.984L61.1529 73.4612C61.7888 72.9608 61.8984 72.0399 61.3984 71.4042Z" fill="white"/>
</g>
<defs>
<filter id="filter0_d_10_5034" x="-4" y="0" width="108" height="108" filterUnits="userSpaceOnUse" color-interpolation-filters="sRGB">
<feFlood flood-opacity="0" result="BackgroundImageFix"/>
<feColorMatrix in="SourceAlpha" type="matrix" values="0 0 0 0 0 0 0 0 0 0 0 0 0 0 0 0 0 0 127 0" result="hardAlpha"/>
<feOffset dy="4"/>
<feGaussianBlur stdDeviation="2"/>
<feColorMatrix type="matrix" values="0 0 0 0 0 0 0 0 0 0 0 0 0 0 0 0 0 0 1 0"/>
<feBlend mode="normal" in2="BackgroundImageFix" result="effect1_dropShadow_10_5034"/>
<feBlend mode="normal" in="SourceGraphic" in2="effect1_dropShadow_10_5034" result="shape"/>
</filter>
<clipPath id="clip0_10_5034">
<rect width="100" height="100" fill="white"/>
</clipPath>
</defs>
</svg>
