<svg width="108" height="100" viewBox="0 0 108 100" fill="none" xmlns="http://www.w3.org/2000/svg">
<g filter="url(#filter0_d_11_5095)">
<path d="M99.7916 36.1762C100.485 34.5191 100.869 32.7019 100.869 30.7965C100.869 24.8558 97.1451 19.7715 91.9105 17.7461C89.5871 15.8705 86.2809 14.6992 82.7908 14.5281C79.1418 14.3484 75.7314 15.2961 73.4395 17.1265C66.673 22.5297 61.2227 24.6347 54 24.6347C46.7773 24.6347 41.3268 22.5297 34.5605 17.1265C32.2684 15.2961 28.8615 14.3492 25.2094 14.5281C21.7193 14.6994 18.4131 15.8703 16.0898 17.7461C10.8553 19.7713 7.13125 24.8556 7.13125 30.7965C7.13125 32.7019 7.51543 34.5191 8.20859 36.1762C7.01523 37.7033 4 41.8609 4 44.8873V44.8875C4 51.8306 10.4984 61.9248 20.5559 70.6037C25.5672 74.9283 31.0967 78.5672 36.5465 81.1273C42.7137 84.0244 48.5859 85.4933 54 85.4933C59.4141 85.4933 65.2863 84.0244 71.4535 81.1273C76.9033 78.5672 82.4328 74.9281 87.4441 70.6037C97.4381 61.9795 103.915 51.9592 103.996 45.0205C103.998 44.976 104 44.9318 104 44.8883C104 44.8879 104 44.8877 104 44.8875C104 41.8609 100.985 37.7029 99.7916 36.1762ZM86.8787 19.7361C92.9775 19.7361 97.9391 24.6978 97.9391 30.7965C97.9391 36.8951 92.9775 41.8568 86.8787 41.8568C80.7799 41.8568 75.8184 36.8951 75.8184 30.7965C75.8184 24.6976 80.7799 19.7361 86.8787 19.7361ZM85.5303 68.3855C80.718 72.5383 75.4197 76.0273 70.208 78.4756C64.4336 81.1883 58.9805 82.5636 54.0002 82.5636C49.0199 82.5636 43.5668 81.1883 37.7924 78.4756C32.5805 76.0273 27.2822 72.5383 22.4701 68.3855C16.5619 63.2871 11.8893 57.615 9.26621 52.6082C9.47148 52.7892 9.68086 52.9715 9.89844 53.1564C13.2479 56.0035 17.9504 59.1908 23.1395 62.1312C28.548 65.1961 34.1385 67.8195 39.3066 69.7176C45.1789 71.8744 50.1227 72.9681 54.0002 72.9681C57.8777 72.9681 62.8215 71.8746 68.6937 69.7176C73.8619 67.8195 79.4523 65.1961 84.8609 62.1312C90.05 59.1908 94.7525 56.0033 98.102 53.1564C98.3195 52.9715 98.5291 52.7892 98.7342 52.6084C96.1109 57.6152 91.4385 63.2871 85.5303 68.3855ZM39.2457 66.5722C43.4197 64.6504 48.6365 63.5742 54 63.5742C59.367 63.5742 64.5818 64.6496 68.7557 66.5718C62.9441 68.7918 57.7709 70.0385 54 70.0385C50.2293 70.0385 45.0566 68.792 39.2457 66.5722ZM82.0271 51.2844C81.2363 51.4545 80.7332 52.2336 80.9033 53.0246C81.0512 53.7117 81.6584 54.1816 82.3338 54.1816C82.4359 54.1816 82.5396 54.1709 82.6436 54.1486C88.2736 52.9371 93.4879 51.4381 97.3383 49.9248C96.9926 50.2416 96.6168 50.5742 96.2045 50.9246C92.9914 53.6556 88.45 56.7306 83.4166 59.5828C79.6494 61.7176 75.8955 63.5824 72.3121 65.1252C67.3758 62.2342 60.9088 60.6445 54 60.6445C47.0951 60.6445 40.6246 62.2347 35.6883 65.125C32.1047 63.5822 28.3506 61.7172 24.5834 59.5824C19.55 56.7303 15.0088 53.6553 11.7955 50.9242C11.3836 50.574 11.008 50.2418 10.6627 49.9252C13.3076 50.966 16.6029 52.0033 20.3156 52.9597C31.0518 55.7254 43.3291 57.3115 54 57.3115C60.9715 57.3115 68.635 56.6455 76.1615 55.3857C76.9594 55.2521 77.498 54.4971 77.3645 53.6992C77.2307 52.9012 76.476 52.3621 75.6777 52.4963C68.3084 53.7299 60.8123 54.3818 54 54.3818C40.3637 54.3818 28.2852 51.9109 22.299 50.4381C13.1082 48.1765 7.82695 45.7265 6.93848 44.6797C7.06367 43.1883 8.46367 40.8025 9.77656 38.9681C12.3197 42.4888 16.4561 44.7865 21.1213 44.7865C28.8354 44.7865 35.1113 38.5105 35.1113 30.7965C35.1113 29.1611 34.8314 27.5588 34.2793 26.0338C34.0041 25.2732 33.165 24.8793 32.4035 25.1549C31.6428 25.4303 31.2494 26.2701 31.5248 27.0308C31.9605 28.2351 32.1816 29.5019 32.1816 30.7963C32.1816 36.8949 27.2201 41.8566 21.1213 41.8566C15.0225 41.8566 10.0609 36.8949 10.0609 30.7963C10.0609 24.6974 15.0225 19.7359 21.1213 19.7359C23.8176 19.7359 26.4146 20.7168 28.434 22.4982C29.0406 23.0334 29.9664 22.9754 30.5016 22.3685C31.0365 21.7619 30.9785 20.8361 30.3719 20.3012C28.8967 19 27.1775 18.0389 25.332 17.4566C28.1314 17.3176 30.9031 17.9553 32.7324 19.4158C39.9803 25.2035 46.142 27.5642 54 27.5642C61.858 27.5642 68.0195 25.2035 75.2676 19.4158C77.0959 17.9558 79.8658 17.318 82.6641 17.4564C77.0035 19.249 72.8889 24.5506 72.8889 30.7965C72.8889 38.5105 79.1648 44.7865 86.8789 44.7865C91.5441 44.7865 95.6805 42.4888 98.2236 38.9681C99.5365 40.8025 100.936 43.1879 101.061 44.6795C100.099 45.8088 93.849 48.7406 82.0271 51.2844Z" fill="white"/>
<path d="M50.3393 42.2859C49.7672 41.7138 48.8397 41.7138 48.2678 42.2859L46.702 43.8515C46.1297 44.4236 46.1297 45.3509 46.7018 45.923C46.9877 46.2091 47.3625 46.3521 47.7375 46.3521C48.1123 46.3521 48.4873 46.2091 48.7732 45.9232L50.3391 44.3574C50.9113 43.7853 50.9113 42.8579 50.3393 42.2859Z" fill="white"/>
<path d="M61.2986 43.8515L59.733 42.2859C59.1609 41.7138 58.2334 41.7138 57.6615 42.2859C57.0893 42.8579 57.0893 43.7853 57.6613 44.3574L59.2268 45.923C59.5129 46.2091 59.8877 46.3521 60.2627 46.3521C60.6375 46.3521 61.0125 46.2091 61.2984 45.9232C61.8707 45.3511 61.8707 44.4236 61.2986 43.8515Z" fill="white"/>
<path d="M21.1213 27.766C20.3121 27.766 19.6565 28.4218 19.6565 29.2308V32.362C19.6565 33.281 18.909 34.0285 17.99 34.0285C17.0711 34.0285 16.3236 33.2808 16.3236 32.362V27.665C16.3236 26.746 17.0711 25.9986 17.99 25.9986C18.7992 25.9986 19.4549 25.3427 19.4549 24.5337C19.4549 23.7247 18.7992 23.0689 17.99 23.0689C15.4557 23.0689 13.394 25.1308 13.394 27.665V32.362C13.394 34.8964 15.4559 36.9581 17.99 36.9581C20.5242 36.9581 22.5861 34.8962 22.5861 32.362V29.2308C22.5861 28.4218 21.9305 27.766 21.1213 27.766Z" fill="white"/>
<path d="M90.01 23.0689C89.2008 23.0689 88.5451 23.7247 88.5451 24.5337C88.5451 25.3427 89.2008 25.9986 90.01 25.9986C90.9289 25.9986 91.6764 26.7462 91.6764 27.665V32.362C91.6764 33.281 90.9289 34.0285 90.01 34.0285C89.091 34.0285 88.3436 33.2808 88.3436 32.362V29.2308C88.3436 28.4218 87.6879 27.766 86.8787 27.766C86.0695 27.766 85.4139 28.4218 85.4139 29.2308V32.362C85.4139 34.8964 87.4758 36.9581 90.01 36.9581C92.5442 36.9581 94.6061 34.8962 94.6061 32.362V27.665C94.6061 25.1306 92.5442 23.0689 90.01 23.0689Z" fill="white"/>
</g>
<defs>
<filter id="filter0_d_11_5095" x="0" y="0" width="108" height="108" filterUnits="userSpaceOnUse" color-interpolation-filters="sRGB">
<feFlood flood-opacity="0" result="BackgroundImageFix"/>
<feColorMatrix in="SourceAlpha" type="matrix" values="0 0 0 0 0 0 0 0 0 0 0 0 0 0 0 0 0 0 127 0" result="hardAlpha"/>
<feOffset dy="4"/>
<feGaussianBlur stdDeviation="2"/>
<feColorMatrix type="matrix" values="0 0 0 0 0 0 0 0 0 0 0 0 0 0 0 0 0 0 1 0"/>
<feBlend mode="normal" in2="BackgroundImageFix" result="effect1_dropShadow_11_5095"/>
<feBlend mode="normal" in="SourceGraphic" in2="effect1_dropShadow_11_5095" result="shape"/>
</filter>
</defs>
</svg>
