<svg width="1120" height="397" viewBox="0 0 1120 397" fill="none" xmlns="http://www.w3.org/2000/svg">
<circle cx="561" cy="171" r="171" fill="black" fill-opacity="0.2"/>
<circle cx="561" cy="171" r="140" fill="#00BA5B"/>
<mask id="mask0_5_10455" style="mask-type:alpha" maskUnits="userSpaceOnUse" x="421" y="31" width="280" height="280">
<circle opacity="0.3" cx="561" cy="171" r="140" fill="#29CE69"/>
</mask>
<g mask="url(#mask0_5_10455)">
<path d="M509.084 315L480.524 231H456.044L427.484 315H448.484L452.684 301.8H483.884L488.084 315H509.084ZM468.284 252.96L478.124 283.8H458.444L468.284 252.96ZM553.28 316.68C568.52 316.68 582.08 309.24 589.28 297.24L572.72 287.64C569.24 294 561.8 297.96 553.28 297.96C545.84 297.96 539.84 295.68 535.4 291.12C530.96 286.56 528.8 280.56 528.8 273C528.8 265.44 530.96 259.44 535.4 254.88C539.84 250.32 545.84 248.04 553.28 248.04C561.8 248.04 569 251.76 572.72 258.36L589.28 248.76C581.96 236.76 568.28 229.32 553.28 229.32C540.68 229.32 530.24 233.52 521.96 241.92C513.68 250.2 509.6 260.64 509.6 273C509.6 285.36 513.68 295.8 521.96 304.2C530.24 312.48 540.68 316.68 553.28 316.68ZM598.278 315H617.478V231H598.278V315ZM625.911 231V249.48H647.511V315H666.711V249.48H688.311V231H625.911Z" fill="white"/>
</g>
<path d="M469.633 131.234L465.59 131.742V153.93H470.922C473.695 153.93 475.733 153.799 477.035 153.539L478.637 148.09H480.395L479.652 156H456.078V154.574L459.438 154.047V131.742L456.098 131.234V129.809H469.633V131.234ZM492.934 154.047L496.293 154.555V156H483.422V154.555L486.781 154.047V131.762L483.422 131.234V129.809H496.293V131.234L492.934 131.762V154.047ZM492.25 127.602C491.143 127.602 489.861 127.029 488.402 125.883C487.66 125.297 487.074 125.004 486.645 125.004C486.202 125.004 485.896 125.154 485.727 125.453C485.557 125.74 485.414 126.339 485.297 127.25H483.246C483.389 125.245 483.806 123.812 484.496 122.953C485.199 122.081 486.182 121.645 487.445 121.645C488.083 121.645 488.656 121.762 489.164 121.996C489.685 122.23 490.401 122.673 491.312 123.324C492.107 123.91 492.686 124.203 493.051 124.203C493.298 124.203 493.493 124.164 493.637 124.086C493.793 123.995 493.917 123.852 494.008 123.656C494.112 123.461 494.242 122.914 494.398 122.016H496.449C496.306 123.995 495.889 125.421 495.199 126.293C494.522 127.165 493.539 127.602 492.25 127.602ZM520.219 131.742L516.703 131.234V129.809H526.02V131.234L522.66 131.742V156H520.375L504.223 134.945V154.047L507.738 154.574V156H498.422V154.574L501.781 154.047V131.742L498.422 131.234V129.809H507.387L520.219 146.547V131.742ZM527.25 156V154.555L530.609 154.047V131.762L527.25 131.234V129.809H540.121V131.234L536.762 131.762V141.449H547.465V131.762L544.105 131.234V129.809H557.016V131.234L553.637 131.762V154.047L557.016 154.555V156H544.105V154.555L547.465 154.047V143.598H536.762V154.047L540.121 154.555V156H527.25ZM595.395 129.809V131.234L592.914 131.762L582.797 156.605H580.199L569.555 131.762L567.406 131.234V129.809H578.793V131.234L576.078 131.762L583.441 148.93L590.316 131.762L587.68 131.234V129.809H595.395ZM627.348 130.492C627.348 132.146 626.775 133.598 625.629 134.848C624.483 136.085 622.868 136.996 620.785 137.582V146.996C620.785 150.017 619.913 152.335 618.168 153.949C616.423 155.564 613.93 156.371 610.688 156.371C607.185 156.371 604.496 155.557 602.621 153.93C600.759 152.289 599.828 149.926 599.828 146.84V131.742L596.859 131.234V129.809H609.34V131.234L605.98 131.742V147.113C605.98 149.21 606.508 150.818 607.562 151.938C608.63 153.057 610.186 153.617 612.23 153.617C614.184 153.617 615.694 153.07 616.762 151.977C617.829 150.883 618.363 149.275 618.363 147.152V131.742L614.848 131.234V129.809H620.785V135.648C621.996 135.245 622.868 134.796 623.402 134.301C623.949 133.806 624.223 133.311 624.223 132.816C624.223 132.582 624.125 132.374 623.93 132.191C623.747 132.009 623.409 131.781 622.914 131.508C622.029 131.039 621.586 130.368 621.586 129.496C621.586 128.767 621.833 128.174 622.328 127.719C622.823 127.263 623.461 127.035 624.242 127.035C625.167 127.035 625.915 127.361 626.488 128.012C627.061 128.65 627.348 129.477 627.348 130.492ZM607.289 160.824C607.289 159.978 607.582 159.268 608.168 158.695C608.767 158.122 609.477 157.836 610.297 157.836C611.13 157.836 611.833 158.122 612.406 158.695C612.992 159.281 613.285 159.991 613.285 160.824C613.285 161.645 612.999 162.348 612.426 162.934C611.853 163.533 611.143 163.832 610.297 163.832C609.464 163.832 608.754 163.539 608.168 162.953C607.582 162.38 607.289 161.671 607.289 160.824ZM643.617 156.391C639.229 156.391 635.805 155.225 633.344 152.895C630.883 150.564 629.652 147.335 629.652 143.207C629.652 138.728 630.824 135.329 633.168 133.012C635.525 130.681 639.001 129.516 643.598 129.516C646.632 129.516 649.776 129.952 653.031 130.824L653.148 137.113H651.391L650.844 133.324C649.125 132.152 647.126 131.566 644.848 131.566C641.827 131.566 639.62 132.51 638.227 134.398C636.833 136.273 636.137 139.19 636.137 143.148C636.137 146.807 636.866 149.594 638.324 151.508C639.783 153.422 641.905 154.379 644.691 154.379C646.163 154.379 647.445 154.184 648.539 153.793C649.646 153.402 650.512 152.94 651.137 152.406L651.762 148.109H653.539L653.422 154.75C652.25 155.206 650.727 155.596 648.852 155.922C646.977 156.234 645.232 156.391 643.617 156.391ZM438.09 206V204.555L441.449 204.047V181.762L438.09 181.234V179.809H450.961V181.234L447.602 181.762V191.449H458.305V181.762L454.945 181.234V179.809H467.855V181.234L464.477 181.762V204.047L467.855 204.555V206H454.945V204.555L458.305 204.047V193.598H447.602V204.047L450.961 204.555V206H438.09ZM476.977 192.875C476.977 197.029 477.543 199.997 478.676 201.781C479.822 203.552 481.632 204.438 484.105 204.438C486.566 204.438 488.363 203.546 489.496 201.762C490.642 199.978 491.215 197.016 491.215 192.875C491.215 188.747 490.642 185.818 489.496 184.086C488.363 182.354 486.566 181.488 484.105 181.488C481.632 181.488 479.822 182.354 478.676 184.086C477.543 185.818 476.977 188.747 476.977 192.875ZM470.492 192.875C470.492 183.969 475.03 179.516 484.105 179.516C488.585 179.516 491.97 180.648 494.262 182.914C496.553 185.167 497.699 188.487 497.699 192.875C497.699 197.315 496.54 200.681 494.223 202.973C491.905 205.251 488.533 206.391 484.105 206.391C479.691 206.391 476.319 205.251 473.988 202.973C471.658 200.694 470.492 197.328 470.492 192.875ZM508.031 204.574V206H500.062V204.574L502.016 204.047L511.332 179.594H516.996L526.273 204.047L528.266 204.574V206H516.605V204.574L519.633 204.047L517.133 197.27H507.074L504.672 204.047L508.031 204.574ZM512.191 183.539L507.875 195.121H516.391L512.191 183.539ZM509.887 210.824C509.887 209.978 510.18 209.268 510.766 208.695C511.365 208.122 512.074 207.836 512.895 207.836C513.728 207.836 514.431 208.122 515.004 208.695C515.59 209.281 515.883 209.991 515.883 210.824C515.883 211.645 515.596 212.348 515.023 212.934C514.451 213.533 513.741 213.832 512.895 213.832C512.061 213.832 511.352 213.539 510.766 212.953C510.18 212.38 509.887 211.671 509.887 210.824ZM534.633 206V204.574L538.793 204.047V181.879H537.797C534.815 181.879 532.719 182.009 531.508 182.27L530.98 187.133H529.203V179.809H554.652V187.133H552.855L552.328 182.27C551.247 182.035 549.112 181.918 545.922 181.918H544.965V204.047L549.125 204.574V206H534.633ZM578.09 179.809C582.79 179.809 586.26 180.876 588.5 183.012C590.753 185.134 591.879 188.383 591.879 192.758C591.879 197.25 590.805 200.596 588.656 202.797C586.508 204.984 583.259 206.078 578.91 206.078L570.141 206H566.078V204.574L569.008 204.047V194.105H565.512V191.723H569.008V181.742L565.648 181.234V179.809H578.09ZM585.395 192.914C585.395 189.138 584.704 186.371 583.324 184.613C581.944 182.842 579.698 181.957 576.586 181.957H575.141V191.723H580.141V194.105H575.141V203.773C576.391 203.878 577.523 203.93 578.539 203.93C580.232 203.93 581.566 203.565 582.543 202.836C583.533 202.107 584.255 200.967 584.711 199.418C585.167 197.855 585.395 195.688 585.395 192.914ZM601.859 192.875C601.859 197.029 602.426 199.997 603.559 201.781C604.704 203.552 606.514 204.438 608.988 204.438C611.449 204.438 613.246 203.546 614.379 201.762C615.525 199.978 616.098 197.016 616.098 192.875C616.098 188.747 615.525 185.818 614.379 184.086C613.246 182.354 611.449 181.488 608.988 181.488C606.514 181.488 604.704 182.354 603.559 184.086C602.426 185.818 601.859 188.747 601.859 192.875ZM595.375 192.875C595.375 183.969 599.913 179.516 608.988 179.516C613.467 179.516 616.853 180.648 619.145 182.914C621.436 185.167 622.582 188.487 622.582 192.875C622.582 197.315 621.423 200.681 619.105 202.973C616.788 205.251 613.415 206.391 608.988 206.391C604.574 206.391 601.202 205.251 598.871 202.973C596.54 200.694 595.375 197.328 595.375 192.875ZM606 210.824C606 209.978 606.293 209.268 606.879 208.695C607.478 208.122 608.188 207.836 609.008 207.836C609.841 207.836 610.544 208.122 611.117 208.695C611.703 209.281 611.996 209.991 611.996 210.824C611.996 211.645 611.71 212.348 611.137 212.934C610.564 213.533 609.854 213.832 609.008 213.832C608.174 213.832 607.465 213.539 606.879 212.953C606.293 212.38 606 211.671 606 210.824ZM602.66 177.641V176.996L606.918 171.273H611.078L615.316 176.996V177.641H613.832L608.988 174.477L604.145 177.641H602.66ZM647.113 181.742L643.598 181.234V179.809H652.914V181.234L649.555 181.742V206H647.27L631.117 184.945V204.047L634.633 204.574V206H625.316V204.574L628.676 204.047V181.742L625.316 181.234V179.809H634.281L647.113 196.547V181.742ZM680.922 204.633C679.307 205.167 677.432 205.596 675.297 205.922C673.161 206.234 671.241 206.391 669.535 206.391C666.684 206.391 664.19 205.87 662.055 204.828C659.932 203.786 658.292 202.27 657.133 200.277C655.987 198.285 655.414 195.928 655.414 193.207C655.414 188.819 656.664 185.44 659.164 183.07C661.677 180.701 665.258 179.516 669.906 179.516C671.039 179.516 672.068 179.561 672.992 179.652C673.93 179.743 674.802 179.867 675.609 180.023C676.417 180.18 677.901 180.564 680.062 181.176V187.191H678.305L677.836 183.793C676.807 183.09 675.674 182.543 674.438 182.152C673.201 181.762 671.924 181.566 670.609 181.566C667.576 181.566 665.362 182.51 663.969 184.398C662.589 186.286 661.898 189.21 661.898 193.168C661.898 196.853 662.628 199.646 664.086 201.547C665.557 203.435 667.68 204.379 670.453 204.379C671.964 204.379 673.402 204.151 674.77 203.695V196.117L671.41 195.609V194.164H683.48V195.609L680.922 196.117V204.633Z" fill="url(#paint0_linear_5_10455)"/>
<path d="M469.633 131.234L465.59 131.742V153.93H470.922C473.695 153.93 475.733 153.799 477.035 153.539L478.637 148.09H480.395L479.652 156H456.078V154.574L459.438 154.047V131.742L456.098 131.234V129.809H469.633V131.234ZM492.934 154.047L496.293 154.555V156H483.422V154.555L486.781 154.047V131.762L483.422 131.234V129.809H496.293V131.234L492.934 131.762V154.047ZM492.25 127.602C491.143 127.602 489.861 127.029 488.402 125.883C487.66 125.297 487.074 125.004 486.645 125.004C486.202 125.004 485.896 125.154 485.727 125.453C485.557 125.74 485.414 126.339 485.297 127.25H483.246C483.389 125.245 483.806 123.812 484.496 122.953C485.199 122.081 486.182 121.645 487.445 121.645C488.083 121.645 488.656 121.762 489.164 121.996C489.685 122.23 490.401 122.673 491.312 123.324C492.107 123.91 492.686 124.203 493.051 124.203C493.298 124.203 493.493 124.164 493.637 124.086C493.793 123.995 493.917 123.852 494.008 123.656C494.112 123.461 494.242 122.914 494.398 122.016H496.449C496.306 123.995 495.889 125.421 495.199 126.293C494.522 127.165 493.539 127.602 492.25 127.602ZM520.219 131.742L516.703 131.234V129.809H526.02V131.234L522.66 131.742V156H520.375L504.223 134.945V154.047L507.738 154.574V156H498.422V154.574L501.781 154.047V131.742L498.422 131.234V129.809H507.387L520.219 146.547V131.742ZM527.25 156V154.555L530.609 154.047V131.762L527.25 131.234V129.809H540.121V131.234L536.762 131.762V141.449H547.465V131.762L544.105 131.234V129.809H557.016V131.234L553.637 131.762V154.047L557.016 154.555V156H544.105V154.555L547.465 154.047V143.598H536.762V154.047L540.121 154.555V156H527.25ZM595.395 129.809V131.234L592.914 131.762L582.797 156.605H580.199L569.555 131.762L567.406 131.234V129.809H578.793V131.234L576.078 131.762L583.441 148.93L590.316 131.762L587.68 131.234V129.809H595.395ZM627.348 130.492C627.348 132.146 626.775 133.598 625.629 134.848C624.483 136.085 622.868 136.996 620.785 137.582V146.996C620.785 150.017 619.913 152.335 618.168 153.949C616.423 155.564 613.93 156.371 610.688 156.371C607.185 156.371 604.496 155.557 602.621 153.93C600.759 152.289 599.828 149.926 599.828 146.84V131.742L596.859 131.234V129.809H609.34V131.234L605.98 131.742V147.113C605.98 149.21 606.508 150.818 607.562 151.938C608.63 153.057 610.186 153.617 612.23 153.617C614.184 153.617 615.694 153.07 616.762 151.977C617.829 150.883 618.363 149.275 618.363 147.152V131.742L614.848 131.234V129.809H620.785V135.648C621.996 135.245 622.868 134.796 623.402 134.301C623.949 133.806 624.223 133.311 624.223 132.816C624.223 132.582 624.125 132.374 623.93 132.191C623.747 132.009 623.409 131.781 622.914 131.508C622.029 131.039 621.586 130.368 621.586 129.496C621.586 128.767 621.833 128.174 622.328 127.719C622.823 127.263 623.461 127.035 624.242 127.035C625.167 127.035 625.915 127.361 626.488 128.012C627.061 128.65 627.348 129.477 627.348 130.492ZM607.289 160.824C607.289 159.978 607.582 159.268 608.168 158.695C608.767 158.122 609.477 157.836 610.297 157.836C611.13 157.836 611.833 158.122 612.406 158.695C612.992 159.281 613.285 159.991 613.285 160.824C613.285 161.645 612.999 162.348 612.426 162.934C611.853 163.533 611.143 163.832 610.297 163.832C609.464 163.832 608.754 163.539 608.168 162.953C607.582 162.38 607.289 161.671 607.289 160.824ZM643.617 156.391C639.229 156.391 635.805 155.225 633.344 152.895C630.883 150.564 629.652 147.335 629.652 143.207C629.652 138.728 630.824 135.329 633.168 133.012C635.525 130.681 639.001 129.516 643.598 129.516C646.632 129.516 649.776 129.952 653.031 130.824L653.148 137.113H651.391L650.844 133.324C649.125 132.152 647.126 131.566 644.848 131.566C641.827 131.566 639.62 132.51 638.227 134.398C636.833 136.273 636.137 139.19 636.137 143.148C636.137 146.807 636.866 149.594 638.324 151.508C639.783 153.422 641.905 154.379 644.691 154.379C646.163 154.379 647.445 154.184 648.539 153.793C649.646 153.402 650.512 152.94 651.137 152.406L651.762 148.109H653.539L653.422 154.75C652.25 155.206 650.727 155.596 648.852 155.922C646.977 156.234 645.232 156.391 643.617 156.391ZM438.09 206V204.555L441.449 204.047V181.762L438.09 181.234V179.809H450.961V181.234L447.602 181.762V191.449H458.305V181.762L454.945 181.234V179.809H467.855V181.234L464.477 181.762V204.047L467.855 204.555V206H454.945V204.555L458.305 204.047V193.598H447.602V204.047L450.961 204.555V206H438.09ZM476.977 192.875C476.977 197.029 477.543 199.997 478.676 201.781C479.822 203.552 481.632 204.438 484.105 204.438C486.566 204.438 488.363 203.546 489.496 201.762C490.642 199.978 491.215 197.016 491.215 192.875C491.215 188.747 490.642 185.818 489.496 184.086C488.363 182.354 486.566 181.488 484.105 181.488C481.632 181.488 479.822 182.354 478.676 184.086C477.543 185.818 476.977 188.747 476.977 192.875ZM470.492 192.875C470.492 183.969 475.03 179.516 484.105 179.516C488.585 179.516 491.97 180.648 494.262 182.914C496.553 185.167 497.699 188.487 497.699 192.875C497.699 197.315 496.54 200.681 494.223 202.973C491.905 205.251 488.533 206.391 484.105 206.391C479.691 206.391 476.319 205.251 473.988 202.973C471.658 200.694 470.492 197.328 470.492 192.875ZM508.031 204.574V206H500.062V204.574L502.016 204.047L511.332 179.594H516.996L526.273 204.047L528.266 204.574V206H516.605V204.574L519.633 204.047L517.133 197.27H507.074L504.672 204.047L508.031 204.574ZM512.191 183.539L507.875 195.121H516.391L512.191 183.539ZM509.887 210.824C509.887 209.978 510.18 209.268 510.766 208.695C511.365 208.122 512.074 207.836 512.895 207.836C513.728 207.836 514.431 208.122 515.004 208.695C515.59 209.281 515.883 209.991 515.883 210.824C515.883 211.645 515.596 212.348 515.023 212.934C514.451 213.533 513.741 213.832 512.895 213.832C512.061 213.832 511.352 213.539 510.766 212.953C510.18 212.38 509.887 211.671 509.887 210.824ZM534.633 206V204.574L538.793 204.047V181.879H537.797C534.815 181.879 532.719 182.009 531.508 182.27L530.98 187.133H529.203V179.809H554.652V187.133H552.855L552.328 182.27C551.247 182.035 549.112 181.918 545.922 181.918H544.965V204.047L549.125 204.574V206H534.633ZM578.09 179.809C582.79 179.809 586.26 180.876 588.5 183.012C590.753 185.134 591.879 188.383 591.879 192.758C591.879 197.25 590.805 200.596 588.656 202.797C586.508 204.984 583.259 206.078 578.91 206.078L570.141 206H566.078V204.574L569.008 204.047V194.105H565.512V191.723H569.008V181.742L565.648 181.234V179.809H578.09ZM585.395 192.914C585.395 189.138 584.704 186.371 583.324 184.613C581.944 182.842 579.698 181.957 576.586 181.957H575.141V191.723H580.141V194.105H575.141V203.773C576.391 203.878 577.523 203.93 578.539 203.93C580.232 203.93 581.566 203.565 582.543 202.836C583.533 202.107 584.255 200.967 584.711 199.418C585.167 197.855 585.395 195.688 585.395 192.914ZM601.859 192.875C601.859 197.029 602.426 199.997 603.559 201.781C604.704 203.552 606.514 204.438 608.988 204.438C611.449 204.438 613.246 203.546 614.379 201.762C615.525 199.978 616.098 197.016 616.098 192.875C616.098 188.747 615.525 185.818 614.379 184.086C613.246 182.354 611.449 181.488 608.988 181.488C606.514 181.488 604.704 182.354 603.559 184.086C602.426 185.818 601.859 188.747 601.859 192.875ZM595.375 192.875C595.375 183.969 599.913 179.516 608.988 179.516C613.467 179.516 616.853 180.648 619.145 182.914C621.436 185.167 622.582 188.487 622.582 192.875C622.582 197.315 621.423 200.681 619.105 202.973C616.788 205.251 613.415 206.391 608.988 206.391C604.574 206.391 601.202 205.251 598.871 202.973C596.54 200.694 595.375 197.328 595.375 192.875ZM606 210.824C606 209.978 606.293 209.268 606.879 208.695C607.478 208.122 608.188 207.836 609.008 207.836C609.841 207.836 610.544 208.122 611.117 208.695C611.703 209.281 611.996 209.991 611.996 210.824C611.996 211.645 611.71 212.348 611.137 212.934C610.564 213.533 609.854 213.832 609.008 213.832C608.174 213.832 607.465 213.539 606.879 212.953C606.293 212.38 606 211.671 606 210.824ZM602.66 177.641V176.996L606.918 171.273H611.078L615.316 176.996V177.641H613.832L608.988 174.477L604.145 177.641H602.66ZM647.113 181.742L643.598 181.234V179.809H652.914V181.234L649.555 181.742V206H647.27L631.117 184.945V204.047L634.633 204.574V206H625.316V204.574L628.676 204.047V181.742L625.316 181.234V179.809H634.281L647.113 196.547V181.742ZM680.922 204.633C679.307 205.167 677.432 205.596 675.297 205.922C673.161 206.234 671.241 206.391 669.535 206.391C666.684 206.391 664.19 205.87 662.055 204.828C659.932 203.786 658.292 202.27 657.133 200.277C655.987 198.285 655.414 195.928 655.414 193.207C655.414 188.819 656.664 185.44 659.164 183.07C661.677 180.701 665.258 179.516 669.906 179.516C671.039 179.516 672.068 179.561 672.992 179.652C673.93 179.743 674.802 179.867 675.609 180.023C676.417 180.18 677.901 180.564 680.062 181.176V187.191H678.305L677.836 183.793C676.807 183.09 675.674 182.543 674.438 182.152C673.201 181.762 671.924 181.566 670.609 181.566C667.576 181.566 665.362 182.51 663.969 184.398C662.589 186.286 661.898 189.21 661.898 193.168C661.898 196.853 662.628 199.646 664.086 201.547C665.557 203.435 667.68 204.379 670.453 204.379C671.964 204.379 673.402 204.151 674.77 203.695V196.117L671.41 195.609V194.164H683.48V195.609L680.922 196.117V204.633Z" fill="white"/>
<path d="M734 171C734 266.545 656.545 344 561 344C465.455 344 388 266.545 388 171" stroke="white" stroke-width="3"/>
<circle cx="462" cy="314" r="11.5" fill="#375899" stroke="white" stroke-width="5"/>
<circle cx="386" cy="182" r="11.5" fill="#375899" stroke="white" stroke-width="5"/>
<circle cx="735" cy="182" r="11.5" fill="#375899" stroke="white" stroke-width="5"/>
<circle cx="665" cy="312" r="11.5" fill="#375899" stroke="white" stroke-width="5"/>
<path d="M1.5 397V309.5C4.83333 289.167 22.7 247.1 67.5 241.5C170.3 229.5 310.333 199.833 375 186.5" stroke="white" stroke-width="2"/>
<path d="M1118.5 397V309.5C1115.17 289.167 1097.3 247.1 1052.5 241.5C949.7 229.5 809.667 199.833 745 186.5" stroke="white" stroke-width="2"/>
<path d="M375 394.5V353.5C374 348.333 375 336.4 387 330C399 323.6 436.667 314.667 454 311" stroke="white" stroke-width="2"/>
<path d="M753.707 394.5V353.5C754.707 348.333 753.707 336.4 741.707 330C729.707 323.6 692.04 314.667 674.707 311" stroke="white" stroke-width="2"/>
<defs>
<linearGradient id="paint0_linear_5_10455" x1="477.415" y1="183" x2="678.601" y2="152.216" gradientUnits="userSpaceOnUse">
<stop stop-color="#FFF7E9"/>
<stop offset="0.177083" stop-color="#FFDAA3"/>
<stop offset="0.453125" stop-color="#FFF7E9"/>
<stop offset="0.671875" stop-color="#FFDAA3"/>
<stop offset="1" stop-color="#FFF7E9"/>
</linearGradient>
</defs>
</svg>
