<svg width="232" height="232" viewBox="0 0 232 232" fill="none" xmlns="http://www.w3.org/2000/svg">
<circle cx="116" cy="116" r="116" fill="black" fill-opacity="0.2"/>
<circle cx="116" cy="116" r="95" fill="#00BA5B"/>
<mask id="mask0_1117_582" style="mask-type:alpha" maskUnits="userSpaceOnUse" x="21" y="21" width="190" height="190">
<circle opacity="0.3" cx="115.998" cy="116.001" r="94.9708" fill="#29CE69"/>
</mask>
<g mask="url(#mask0_1117_582)">
<path d="M81.3586 209.831L62.3186 153.831H45.9986L26.9586 209.831H40.9586L43.7586 201.031H64.5586L67.3586 209.831H81.3586ZM54.1586 168.471L60.7186 189.031H47.5986L54.1586 168.471ZM110.822 210.951C120.982 210.951 130.022 205.991 134.822 197.991L123.782 191.591C121.462 195.831 116.502 198.471 110.822 198.471C105.862 198.471 101.862 196.951 98.9023 193.911C95.9423 190.871 94.5023 186.871 94.5023 181.831C94.5023 176.791 95.9423 172.791 98.9023 169.751C101.862 166.711 105.862 165.191 110.822 165.191C116.502 165.191 121.302 167.671 123.782 172.071L134.822 165.671C129.942 157.671 120.822 152.711 110.822 152.711C102.422 152.711 95.4623 155.511 89.9423 161.111C84.4223 166.631 81.7023 173.591 81.7023 181.831C81.7023 190.071 84.4223 197.031 89.9423 202.631C95.4623 208.151 102.422 210.951 110.822 210.951ZM140.821 209.831H153.621V153.831H140.821V209.831ZM159.243 153.831V166.151H173.643V209.831H186.443V166.151H200.843V153.831H159.243Z" fill="white"/>
</g>
<path d="M51.543 86.6641L48.7129 87.0195V102.551H52.4453C54.3867 102.551 55.8132 102.46 56.7246 102.277L57.8457 98.4629H59.0762L58.5566 104H42.0547V103.002L44.4062 102.633V87.0195L42.0684 86.6641V85.666H51.543V86.6641ZM67.8535 102.633L70.2051 102.988V104H61.1953V102.988L63.5469 102.633V87.0332L61.1953 86.6641V85.666H70.2051V86.6641L67.8535 87.0332V102.633ZM67.375 84.1211C66.6003 84.1211 65.7025 83.7201 64.6816 82.918C64.1621 82.5078 63.752 82.3027 63.4512 82.3027C63.1413 82.3027 62.9271 82.4076 62.8086 82.6172C62.6901 82.8177 62.5898 83.237 62.5078 83.875H61.0723C61.1725 82.4714 61.4642 81.4688 61.9473 80.8672C62.4395 80.2565 63.1276 79.9512 64.0117 79.9512C64.4583 79.9512 64.8594 80.0332 65.2148 80.1973C65.5794 80.3613 66.0807 80.6712 66.7188 81.127C67.2747 81.5371 67.6803 81.7422 67.9355 81.7422C68.1087 81.7422 68.2454 81.7148 68.3457 81.6602C68.4551 81.5964 68.5417 81.4961 68.6055 81.3594C68.6784 81.2227 68.7695 80.8398 68.8789 80.2109H70.3145C70.2142 81.5964 69.9225 82.5944 69.4395 83.2051C68.9655 83.8158 68.2773 84.1211 67.375 84.1211ZM86.9531 87.0195L84.4922 86.6641V85.666H91.0137V86.6641L88.6621 87.0195V104H87.0625L75.7559 89.2617V102.633L78.2168 103.002V104H71.6953V103.002L74.0469 102.633V87.0195L71.6953 86.6641V85.666H77.9707L86.9531 97.3828V87.0195ZM91.875 104V102.988L94.2266 102.633V87.0332L91.875 86.6641V85.666H100.885V86.6641L98.5332 87.0332V93.8145H106.025V87.0332L103.674 86.6641V85.666H112.711V86.6641L110.346 87.0332V102.633L112.711 102.988V104H103.674V102.988L106.025 102.633V95.3184H98.5332V102.633L100.885 102.988V104H91.875ZM139.576 85.666V86.6641L137.84 87.0332L130.758 104.424H128.939L121.488 87.0332L119.984 86.6641V85.666H127.955V86.6641L126.055 87.0332L131.209 99.0508L136.021 87.0332L134.176 86.6641V85.666H139.576ZM161.943 86.1445C161.943 87.3021 161.542 88.3184 160.74 89.1934C159.938 90.0592 158.808 90.6973 157.35 91.1074V97.6973C157.35 99.8118 156.739 101.434 155.518 102.564C154.296 103.695 152.551 104.26 150.281 104.26C147.829 104.26 145.947 103.69 144.635 102.551C143.331 101.402 142.68 99.748 142.68 97.5879V87.0195L140.602 86.6641V85.666H149.338V86.6641L146.986 87.0195V97.7793C146.986 99.2467 147.355 100.372 148.094 101.156C148.841 101.94 149.93 102.332 151.361 102.332C152.729 102.332 153.786 101.949 154.533 101.184C155.281 100.418 155.654 99.2923 155.654 97.8066V87.0195L153.193 86.6641V85.666H157.35V89.7539C158.197 89.4714 158.808 89.1569 159.182 88.8105C159.564 88.4642 159.756 88.1178 159.756 87.7715C159.756 87.6074 159.688 87.4616 159.551 87.334C159.423 87.2064 159.186 87.0469 158.84 86.8555C158.22 86.5273 157.91 86.0579 157.91 85.4473C157.91 84.9368 158.083 84.5221 158.43 84.2031C158.776 83.8841 159.223 83.7246 159.77 83.7246C160.417 83.7246 160.941 83.9525 161.342 84.4082C161.743 84.8548 161.943 85.4336 161.943 86.1445ZM147.902 107.377C147.902 106.785 148.107 106.288 148.518 105.887C148.937 105.486 149.434 105.285 150.008 105.285C150.591 105.285 151.083 105.486 151.484 105.887C151.895 106.297 152.1 106.794 152.1 107.377C152.1 107.951 151.899 108.443 151.498 108.854C151.097 109.273 150.6 109.482 150.008 109.482C149.424 109.482 148.928 109.277 148.518 108.867C148.107 108.466 147.902 107.969 147.902 107.377ZM173.332 104.273C170.26 104.273 167.863 103.458 166.141 101.826C164.418 100.195 163.557 97.9342 163.557 95.0449C163.557 91.9095 164.377 89.5306 166.018 87.9082C167.667 86.2767 170.101 85.4609 173.318 85.4609C175.442 85.4609 177.643 85.7663 179.922 86.377L180.004 90.7793H178.773L178.391 88.127C177.188 87.3066 175.788 86.8965 174.193 86.8965C172.079 86.8965 170.534 87.5573 169.559 88.8789C168.583 90.1914 168.096 92.2331 168.096 95.0039C168.096 97.5651 168.606 99.5156 169.627 100.855C170.648 102.195 172.133 102.865 174.084 102.865C175.114 102.865 176.012 102.729 176.777 102.455C177.552 102.182 178.158 101.858 178.596 101.484L179.033 98.4766H180.277L180.195 103.125C179.375 103.444 178.309 103.717 176.996 103.945C175.684 104.164 174.462 104.273 173.332 104.273ZM29.4629 139V137.988L31.8145 137.633V122.033L29.4629 121.664V120.666H38.4727V121.664L36.1211 122.033V128.814H43.6133V122.033L41.2617 121.664V120.666H50.2988V121.664L47.9336 122.033V137.633L50.2988 137.988V139H41.2617V137.988L43.6133 137.633V130.318H36.1211V137.633L38.4727 137.988V139H29.4629ZM56.6836 129.812C56.6836 132.72 57.0801 134.798 57.873 136.047C58.6751 137.286 59.9421 137.906 61.6738 137.906C63.3965 137.906 64.6543 137.282 65.4473 136.033C66.2493 134.785 66.6504 132.711 66.6504 129.812C66.6504 126.923 66.2493 124.872 65.4473 123.66C64.6543 122.448 63.3965 121.842 61.6738 121.842C59.9421 121.842 58.6751 122.448 57.873 123.66C57.0801 124.872 56.6836 126.923 56.6836 129.812ZM52.1445 129.812C52.1445 123.578 55.321 120.461 61.6738 120.461C64.8092 120.461 67.179 121.254 68.7832 122.84C70.3874 124.417 71.1895 126.741 71.1895 129.812C71.1895 132.921 70.3783 135.277 68.7559 136.881C67.1335 138.476 64.7728 139.273 61.6738 139.273C58.584 139.273 56.2233 138.476 54.5918 136.881C52.9603 135.286 52.1445 132.93 52.1445 129.812ZM78.4219 138.002V139H72.8438V138.002L74.2109 137.633L80.7324 120.516H84.6973L91.1914 137.633L92.5859 138.002V139H84.4238V138.002L86.543 137.633L84.793 132.889H77.752L76.0703 137.633L78.4219 138.002ZM81.334 123.277L78.3125 131.385H84.2734L81.334 123.277ZM79.7207 142.377C79.7207 141.785 79.9258 141.288 80.3359 140.887C80.7552 140.486 81.252 140.285 81.8262 140.285C82.4095 140.285 82.9017 140.486 83.3027 140.887C83.7129 141.297 83.918 141.794 83.918 142.377C83.918 142.951 83.7174 143.443 83.3164 143.854C82.9154 144.273 82.4186 144.482 81.8262 144.482C81.2428 144.482 80.7461 144.277 80.3359 143.867C79.9258 143.466 79.7207 142.969 79.7207 142.377ZM97.043 139V138.002L99.9551 137.633V122.115H99.2578C97.1706 122.115 95.7031 122.206 94.8555 122.389L94.4863 125.793H93.2422V120.666H111.057V125.793H109.799L109.43 122.389C108.673 122.225 107.178 122.143 104.945 122.143H104.275V137.633L107.188 138.002V139H97.043ZM127.463 120.666C130.753 120.666 133.182 121.413 134.75 122.908C136.327 124.394 137.115 126.668 137.115 129.73C137.115 132.875 136.363 135.217 134.859 136.758C133.355 138.289 131.081 139.055 128.037 139.055L121.898 139H119.055V138.002L121.105 137.633V130.674H118.658V129.006H121.105V122.02L118.754 121.664V120.666H127.463ZM132.576 129.84C132.576 127.197 132.093 125.26 131.127 124.029C130.161 122.79 128.589 122.17 126.41 122.17H125.398V129.006H128.898V130.674H125.398V137.441C126.273 137.514 127.066 137.551 127.777 137.551C128.962 137.551 129.896 137.296 130.58 136.785C131.273 136.275 131.779 135.477 132.098 134.393C132.417 133.299 132.576 131.781 132.576 129.84ZM144.102 129.812C144.102 132.72 144.498 134.798 145.291 136.047C146.093 137.286 147.36 137.906 149.092 137.906C150.814 137.906 152.072 137.282 152.865 136.033C153.667 134.785 154.068 132.711 154.068 129.812C154.068 126.923 153.667 124.872 152.865 123.66C152.072 122.448 150.814 121.842 149.092 121.842C147.36 121.842 146.093 122.448 145.291 123.66C144.498 124.872 144.102 126.923 144.102 129.812ZM139.562 129.812C139.562 123.578 142.739 120.461 149.092 120.461C152.227 120.461 154.597 121.254 156.201 122.84C157.805 124.417 158.607 126.741 158.607 129.812C158.607 132.921 157.796 135.277 156.174 136.881C154.551 138.476 152.191 139.273 149.092 139.273C146.002 139.273 143.641 138.476 142.01 136.881C140.378 135.286 139.562 132.93 139.562 129.812ZM147 142.377C147 141.785 147.205 141.288 147.615 140.887C148.035 140.486 148.531 140.285 149.105 140.285C149.689 140.285 150.181 140.486 150.582 140.887C150.992 141.297 151.197 141.794 151.197 142.377C151.197 142.951 150.997 143.443 150.596 143.854C150.195 144.273 149.698 144.482 149.105 144.482C148.522 144.482 148.025 144.277 147.615 143.867C147.205 143.466 147 142.969 147 142.377ZM144.662 119.148V118.697L147.643 114.691H150.555L153.521 118.697V119.148H152.482L149.092 116.934L145.701 119.148H144.662ZM175.779 122.02L173.318 121.664V120.666H179.84V121.664L177.488 122.02V139H175.889L164.582 124.262V137.633L167.043 138.002V139H160.521V138.002L162.873 137.633V122.02L160.521 121.664V120.666H166.797L175.779 132.383V122.02ZM199.445 138.043C198.315 138.417 197.003 138.717 195.508 138.945C194.013 139.164 192.669 139.273 191.475 139.273C189.479 139.273 187.733 138.909 186.238 138.18C184.753 137.451 183.604 136.389 182.793 134.994C181.991 133.6 181.59 131.95 181.59 130.045C181.59 126.973 182.465 124.608 184.215 122.949C185.974 121.29 188.48 120.461 191.734 120.461C192.527 120.461 193.247 120.493 193.895 120.557C194.551 120.62 195.161 120.707 195.727 120.816C196.292 120.926 197.331 121.195 198.844 121.623V125.834H197.613L197.285 123.455C196.565 122.963 195.772 122.58 194.906 122.307C194.04 122.033 193.147 121.896 192.227 121.896C190.103 121.896 188.553 122.557 187.578 123.879C186.612 125.201 186.129 127.247 186.129 130.018C186.129 132.597 186.639 134.552 187.66 135.883C188.69 137.204 190.176 137.865 192.117 137.865C193.174 137.865 194.182 137.706 195.139 137.387V132.082L192.787 131.727V130.715H201.236V131.727L199.445 132.082V138.043Z" fill="url(#paint0_linear_1117_582)"/>
<path d="M51.543 86.6641L48.7129 87.0195V102.551H52.4453C54.3867 102.551 55.8132 102.46 56.7246 102.277L57.8457 98.4629H59.0762L58.5566 104H42.0547V103.002L44.4062 102.633V87.0195L42.0684 86.6641V85.666H51.543V86.6641ZM67.8535 102.633L70.2051 102.988V104H61.1953V102.988L63.5469 102.633V87.0332L61.1953 86.6641V85.666H70.2051V86.6641L67.8535 87.0332V102.633ZM67.375 84.1211C66.6003 84.1211 65.7025 83.7201 64.6816 82.918C64.1621 82.5078 63.752 82.3027 63.4512 82.3027C63.1413 82.3027 62.9271 82.4076 62.8086 82.6172C62.6901 82.8177 62.5898 83.237 62.5078 83.875H61.0723C61.1725 82.4714 61.4642 81.4688 61.9473 80.8672C62.4395 80.2565 63.1276 79.9512 64.0117 79.9512C64.4583 79.9512 64.8594 80.0332 65.2148 80.1973C65.5794 80.3613 66.0807 80.6712 66.7188 81.127C67.2747 81.5371 67.6803 81.7422 67.9355 81.7422C68.1087 81.7422 68.2454 81.7148 68.3457 81.6602C68.4551 81.5964 68.5417 81.4961 68.6055 81.3594C68.6784 81.2227 68.7695 80.8398 68.8789 80.2109H70.3145C70.2142 81.5964 69.9225 82.5944 69.4395 83.2051C68.9655 83.8158 68.2773 84.1211 67.375 84.1211ZM86.9531 87.0195L84.4922 86.6641V85.666H91.0137V86.6641L88.6621 87.0195V104H87.0625L75.7559 89.2617V102.633L78.2168 103.002V104H71.6953V103.002L74.0469 102.633V87.0195L71.6953 86.6641V85.666H77.9707L86.9531 97.3828V87.0195ZM91.875 104V102.988L94.2266 102.633V87.0332L91.875 86.6641V85.666H100.885V86.6641L98.5332 87.0332V93.8145H106.025V87.0332L103.674 86.6641V85.666H112.711V86.6641L110.346 87.0332V102.633L112.711 102.988V104H103.674V102.988L106.025 102.633V95.3184H98.5332V102.633L100.885 102.988V104H91.875ZM139.576 85.666V86.6641L137.84 87.0332L130.758 104.424H128.939L121.488 87.0332L119.984 86.6641V85.666H127.955V86.6641L126.055 87.0332L131.209 99.0508L136.021 87.0332L134.176 86.6641V85.666H139.576ZM161.943 86.1445C161.943 87.3021 161.542 88.3184 160.74 89.1934C159.938 90.0592 158.808 90.6973 157.35 91.1074V97.6973C157.35 99.8118 156.739 101.434 155.518 102.564C154.296 103.695 152.551 104.26 150.281 104.26C147.829 104.26 145.947 103.69 144.635 102.551C143.331 101.402 142.68 99.748 142.68 97.5879V87.0195L140.602 86.6641V85.666H149.338V86.6641L146.986 87.0195V97.7793C146.986 99.2467 147.355 100.372 148.094 101.156C148.841 101.94 149.93 102.332 151.361 102.332C152.729 102.332 153.786 101.949 154.533 101.184C155.281 100.418 155.654 99.2923 155.654 97.8066V87.0195L153.193 86.6641V85.666H157.35V89.7539C158.197 89.4714 158.808 89.1569 159.182 88.8105C159.564 88.4642 159.756 88.1178 159.756 87.7715C159.756 87.6074 159.688 87.4616 159.551 87.334C159.423 87.2064 159.186 87.0469 158.84 86.8555C158.22 86.5273 157.91 86.0579 157.91 85.4473C157.91 84.9368 158.083 84.5221 158.43 84.2031C158.776 83.8841 159.223 83.7246 159.77 83.7246C160.417 83.7246 160.941 83.9525 161.342 84.4082C161.743 84.8548 161.943 85.4336 161.943 86.1445ZM147.902 107.377C147.902 106.785 148.107 106.288 148.518 105.887C148.937 105.486 149.434 105.285 150.008 105.285C150.591 105.285 151.083 105.486 151.484 105.887C151.895 106.297 152.1 106.794 152.1 107.377C152.1 107.951 151.899 108.443 151.498 108.854C151.097 109.273 150.6 109.482 150.008 109.482C149.424 109.482 148.928 109.277 148.518 108.867C148.107 108.466 147.902 107.969 147.902 107.377ZM173.332 104.273C170.26 104.273 167.863 103.458 166.141 101.826C164.418 100.195 163.557 97.9342 163.557 95.0449C163.557 91.9095 164.377 89.5306 166.018 87.9082C167.667 86.2767 170.101 85.4609 173.318 85.4609C175.442 85.4609 177.643 85.7663 179.922 86.377L180.004 90.7793H178.773L178.391 88.127C177.188 87.3066 175.788 86.8965 174.193 86.8965C172.079 86.8965 170.534 87.5573 169.559 88.8789C168.583 90.1914 168.096 92.2331 168.096 95.0039C168.096 97.5651 168.606 99.5156 169.627 100.855C170.648 102.195 172.133 102.865 174.084 102.865C175.114 102.865 176.012 102.729 176.777 102.455C177.552 102.182 178.158 101.858 178.596 101.484L179.033 98.4766H180.277L180.195 103.125C179.375 103.444 178.309 103.717 176.996 103.945C175.684 104.164 174.462 104.273 173.332 104.273ZM29.4629 139V137.988L31.8145 137.633V122.033L29.4629 121.664V120.666H38.4727V121.664L36.1211 122.033V128.814H43.6133V122.033L41.2617 121.664V120.666H50.2988V121.664L47.9336 122.033V137.633L50.2988 137.988V139H41.2617V137.988L43.6133 137.633V130.318H36.1211V137.633L38.4727 137.988V139H29.4629ZM56.6836 129.812C56.6836 132.72 57.0801 134.798 57.873 136.047C58.6751 137.286 59.9421 137.906 61.6738 137.906C63.3965 137.906 64.6543 137.282 65.4473 136.033C66.2493 134.785 66.6504 132.711 66.6504 129.812C66.6504 126.923 66.2493 124.872 65.4473 123.66C64.6543 122.448 63.3965 121.842 61.6738 121.842C59.9421 121.842 58.6751 122.448 57.873 123.66C57.0801 124.872 56.6836 126.923 56.6836 129.812ZM52.1445 129.812C52.1445 123.578 55.321 120.461 61.6738 120.461C64.8092 120.461 67.179 121.254 68.7832 122.84C70.3874 124.417 71.1895 126.741 71.1895 129.812C71.1895 132.921 70.3783 135.277 68.7559 136.881C67.1335 138.476 64.7728 139.273 61.6738 139.273C58.584 139.273 56.2233 138.476 54.5918 136.881C52.9603 135.286 52.1445 132.93 52.1445 129.812ZM78.4219 138.002V139H72.8438V138.002L74.2109 137.633L80.7324 120.516H84.6973L91.1914 137.633L92.5859 138.002V139H84.4238V138.002L86.543 137.633L84.793 132.889H77.752L76.0703 137.633L78.4219 138.002ZM81.334 123.277L78.3125 131.385H84.2734L81.334 123.277ZM79.7207 142.377C79.7207 141.785 79.9258 141.288 80.3359 140.887C80.7552 140.486 81.252 140.285 81.8262 140.285C82.4095 140.285 82.9017 140.486 83.3027 140.887C83.7129 141.297 83.918 141.794 83.918 142.377C83.918 142.951 83.7174 143.443 83.3164 143.854C82.9154 144.273 82.4186 144.482 81.8262 144.482C81.2428 144.482 80.7461 144.277 80.3359 143.867C79.9258 143.466 79.7207 142.969 79.7207 142.377ZM97.043 139V138.002L99.9551 137.633V122.115H99.2578C97.1706 122.115 95.7031 122.206 94.8555 122.389L94.4863 125.793H93.2422V120.666H111.057V125.793H109.799L109.43 122.389C108.673 122.225 107.178 122.143 104.945 122.143H104.275V137.633L107.188 138.002V139H97.043ZM127.463 120.666C130.753 120.666 133.182 121.413 134.75 122.908C136.327 124.394 137.115 126.668 137.115 129.73C137.115 132.875 136.363 135.217 134.859 136.758C133.355 138.289 131.081 139.055 128.037 139.055L121.898 139H119.055V138.002L121.105 137.633V130.674H118.658V129.006H121.105V122.02L118.754 121.664V120.666H127.463ZM132.576 129.84C132.576 127.197 132.093 125.26 131.127 124.029C130.161 122.79 128.589 122.17 126.41 122.17H125.398V129.006H128.898V130.674H125.398V137.441C126.273 137.514 127.066 137.551 127.777 137.551C128.962 137.551 129.896 137.296 130.58 136.785C131.273 136.275 131.779 135.477 132.098 134.393C132.417 133.299 132.576 131.781 132.576 129.84ZM144.102 129.812C144.102 132.72 144.498 134.798 145.291 136.047C146.093 137.286 147.36 137.906 149.092 137.906C150.814 137.906 152.072 137.282 152.865 136.033C153.667 134.785 154.068 132.711 154.068 129.812C154.068 126.923 153.667 124.872 152.865 123.66C152.072 122.448 150.814 121.842 149.092 121.842C147.36 121.842 146.093 122.448 145.291 123.66C144.498 124.872 144.102 126.923 144.102 129.812ZM139.562 129.812C139.562 123.578 142.739 120.461 149.092 120.461C152.227 120.461 154.597 121.254 156.201 122.84C157.805 124.417 158.607 126.741 158.607 129.812C158.607 132.921 157.796 135.277 156.174 136.881C154.551 138.476 152.191 139.273 149.092 139.273C146.002 139.273 143.641 138.476 142.01 136.881C140.378 135.286 139.562 132.93 139.562 129.812ZM147 142.377C147 141.785 147.205 141.288 147.615 140.887C148.035 140.486 148.531 140.285 149.105 140.285C149.689 140.285 150.181 140.486 150.582 140.887C150.992 141.297 151.197 141.794 151.197 142.377C151.197 142.951 150.997 143.443 150.596 143.854C150.195 144.273 149.698 144.482 149.105 144.482C148.522 144.482 148.025 144.277 147.615 143.867C147.205 143.466 147 142.969 147 142.377ZM144.662 119.148V118.697L147.643 114.691H150.555L153.521 118.697V119.148H152.482L149.092 116.934L145.701 119.148H144.662ZM175.779 122.02L173.318 121.664V120.666H179.84V121.664L177.488 122.02V139H175.889L164.582 124.262V137.633L167.043 138.002V139H160.521V138.002L162.873 137.633V122.02L160.521 121.664V120.666H166.797L175.779 132.383V122.02ZM199.445 138.043C198.315 138.417 197.003 138.717 195.508 138.945C194.013 139.164 192.669 139.273 191.475 139.273C189.479 139.273 187.733 138.909 186.238 138.18C184.753 137.451 183.604 136.389 182.793 134.994C181.991 133.6 181.59 131.95 181.59 130.045C181.59 126.973 182.465 124.608 184.215 122.949C185.974 121.29 188.48 120.461 191.734 120.461C192.527 120.461 193.247 120.493 193.895 120.557C194.551 120.62 195.161 120.707 195.727 120.816C196.292 120.926 197.331 121.195 198.844 121.623V125.834H197.613L197.285 123.455C196.565 122.963 195.772 122.58 194.906 122.307C194.04 122.033 193.147 121.896 192.227 121.896C190.103 121.896 188.553 122.557 187.578 123.879C186.612 125.201 186.129 127.247 186.129 130.018C186.129 132.597 186.639 134.552 187.66 135.883C188.69 137.204 190.176 137.865 192.117 137.865C193.174 137.865 194.182 137.706 195.139 137.387V132.082L192.787 131.727V130.715H201.236V131.727L199.445 132.082V138.043Z" fill="white"/>
<defs>
<linearGradient id="paint0_linear_1117_582" x1="48.4296" y1="112.75" x2="205.802" y2="77.6189" gradientUnits="userSpaceOnUse">
<stop stop-color="#FFF7E9"/>
<stop offset="0.177083" stop-color="#FFDAA3"/>
<stop offset="0.453125" stop-color="#FFF7E9"/>
<stop offset="0.671875" stop-color="#FFDAA3"/>
<stop offset="1" stop-color="#FFF7E9"/>
</linearGradient>
</defs>
</svg>
