<svg width="108" height="108" viewBox="0 0 108 108" fill="none" xmlns="http://www.w3.org/2000/svg">
<g clip-path="url(#clip0_9_4894)" filter="url(#filter0_d_9_4894)">
<path d="M85.0319 21.9595C85.0319 21.9595 84.9637 21.5991 84.9237 21.3331C84.1163 15.7738 81.4647 10.6607 77.3339 6.77048C72.6978 2.40448 66.6353 0 60.2631 0C53.2572 0 46.6031 2.94628 41.8727 8.11286C41.2924 8.01852 40.7073 7.94743 40.1178 7.90036C40.1161 7.90016 40.1141 7.89997 40.1123 7.89997C39.6491 7.85622 38.6168 7.82848 38.344 7.82848C28.8493 7.82848 20.4163 14.0496 17.5628 23.0532C17.0849 23.2204 16.612 23.4038 16.1462 23.6073C16.0947 23.6298 16.0456 23.6556 15.9982 23.6831C12.8808 25.0829 10.1148 27.2755 8.05231 30.0196C5.40173 33.5462 4.00076 37.7483 4.00076 42.1717C4.00076 53.339 13.0861 62.4242 24.2532 62.4242H44.0584L40.1038 72.97C39.9352 73.42 39.9977 73.9239 40.2713 74.3188C40.5448 74.7136 40.9948 74.9493 41.4752 74.9493H50.3209L41.6692 98.0203C41.4219 98.6795 41.6787 99.4213 42.2803 99.7867C42.5164 99.9301 42.7793 99.9996 43.0403 99.9996C43.4442 99.9996 43.8434 99.8328 44.1295 99.5148L72.3112 68.2021C72.6982 67.772 72.796 67.1546 72.5607 66.6263C72.3253 66.0978 71.8009 65.7574 71.2224 65.7574H61.0675L62.7339 62.4246H83.7475C94.9149 62.4246 104 53.3392 104 42.1721C104 31.4352 95.6035 22.6237 85.0319 21.9595ZM67.9337 68.6868L47.1305 91.801L53.8064 73.9989C53.975 73.5489 53.9125 73.045 53.6389 72.6503C53.3654 72.2554 52.9154 72.0196 52.435 72.0196H43.5893L47.1875 62.4242H59.4588L57.3875 66.5667C57.1603 67.0208 57.1847 67.5601 57.4515 67.9921C57.7183 68.424 58.1898 68.6868 58.6976 68.6868H67.9337ZM83.7479 59.4945H24.2532C14.7013 59.4945 6.93044 51.7234 6.93044 42.1717C6.93044 38.3883 8.12828 34.7948 10.3943 31.7798C12.5871 28.8622 15.7058 26.6706 19.1765 25.6083C19.1872 25.605 19.1972 25.6001 19.2079 25.5964C20.3765 25.2411 21.581 25.0091 22.8089 24.9079C23.6151 24.8413 24.2149 24.1339 24.1483 23.3276C24.0817 22.5214 23.3735 21.9212 22.5681 21.9882C22.0466 22.0312 21.529 22.096 21.0152 22.1784C23.9614 15.3454 30.7602 10.758 38.344 10.758C39.6151 10.758 40.8885 10.8859 42.1293 11.1382C42.1362 11.1396 42.1428 11.1396 42.1496 11.141C43.3348 11.3834 44.4942 11.7394 45.6196 12.2095C45.8041 12.2869 45.9955 12.3232 46.1838 12.3232C46.757 12.3232 47.3012 11.9847 47.5359 11.4228C47.8479 10.6763 47.4955 9.81832 46.749 9.50641C46.2338 9.29117 45.7123 9.09684 45.1854 8.92282C49.2553 5.08924 54.631 2.92968 60.2631 2.92968C71.8079 2.92968 81.447 11.9584 82.2073 23.4841C82.213 23.5706 82.2667 25.9323 82.2347 26.4188C82.1815 27.2261 82.7929 27.9235 83.6003 27.9766C83.6329 27.979 83.6655 27.98 83.6979 27.98C84.463 27.98 85.1073 27.3858 85.1583 26.6112C85.1946 26.061 85.2128 25.5019 85.2128 24.9495C85.2128 24.9366 85.2122 24.9237 85.2122 24.9108C94.0815 25.6563 101.071 33.1128 101.071 42.1717C101.071 51.7234 93.2996 59.4945 83.7479 59.4945Z" fill="white"/>
</g>
<defs>
<filter id="filter0_d_9_4894" x="0" y="0" width="108" height="108" filterUnits="userSpaceOnUse" color-interpolation-filters="sRGB">
<feFlood flood-opacity="0" result="BackgroundImageFix"/>
<feColorMatrix in="SourceAlpha" type="matrix" values="0 0 0 0 0 0 0 0 0 0 0 0 0 0 0 0 0 0 127 0" result="hardAlpha"/>
<feOffset dy="4"/>
<feGaussianBlur stdDeviation="2"/>
<feColorMatrix type="matrix" values="0 0 0 0 0 0 0 0 0 0 0 0 0 0 0 0 0 0 1 0"/>
<feBlend mode="normal" in2="BackgroundImageFix" result="effect1_dropShadow_9_4894"/>
<feBlend mode="normal" in="SourceGraphic" in2="effect1_dropShadow_9_4894" result="shape"/>
</filter>
<clipPath id="clip0_9_4894">
<rect width="100" height="100" fill="white" transform="translate(4)"/>
</clipPath>
</defs>
</svg>
