<svg width="108" height="85" viewBox="0 0 108 85" fill="none" xmlns="http://www.w3.org/2000/svg">
<g filter="url(#filter0_d_23_2)">
<path d="M77.0893 76.48H30.9107C23.9012 76.48 17.1244 73.3269 11.8287 67.6017C6.85332 62.223 4 55.4222 4 48.9429C4 37.4327 9.48262 28.9615 19.8723 24.3886C24.124 11.3343 34.0039 2.64563 47.1055 0.491335C59.6748 -1.57585 72.5609 3.0013 79.6943 11.9353C80.9506 11.5771 82.2438 11.396 83.5557 11.396C91.309 11.396 97.6168 17.7064 97.6168 25.4628C97.6168 27.3509 97.2365 29.2197 96.5082 30.9439C101.286 35.9368 104 42.647 104 49.5742C104 64.4101 91.9277 76.48 77.0893 76.48ZM53.1758 3.90247C51.3723 3.90247 49.5535 4.04719 47.7391 4.34563C35.8715 6.29719 26.9768 14.3351 23.3355 26.398C23.1654 26.9615 22.7504 27.4181 22.2057 27.6411C12.7174 31.5257 7.90625 38.6925 7.90625 48.9429C7.90625 59.8708 17.9551 72.5738 30.9107 72.5738H77.0893C89.774 72.5738 100.094 62.2562 100.094 49.5742C100.094 43.1454 97.5053 37.1786 92.8055 32.7732C92.1514 32.1601 91.9986 31.1806 92.4352 30.3974C93.2695 28.8999 93.7105 27.1937 93.7105 25.4628C93.7105 19.8601 89.1551 15.3023 83.5557 15.3023C82.241 15.3023 80.9504 15.5544 79.7199 16.0515C78.8824 16.3896 77.9219 16.1099 77.3977 15.374C72.2729 8.18216 62.9732 3.90247 53.1758 3.90247Z" fill="white"/>
<path d="M76.7719 50.922C76.4371 49.4745 75.627 48.2443 74.4084 47.315V31.9958V21.4988C74.3773 20.9394 74.1854 20.4232 73.7605 20.0402C73.318 19.6411 72.7 19.4657 72.1135 19.57L43.1752 24.7134C42.2562 24.8769 41.5639 25.7034 41.5639 26.6364V37.139V49.3693C39.9021 49.0872 38.0385 49.1564 36.1252 49.604C33.4926 50.2181 31.0004 51.4792 29.1061 53.1558C26.9041 55.107 25.6912 57.4507 25.6912 59.7556C25.6912 60.215 25.7455 60.6952 25.8529 61.1831C25.8551 61.1927 25.8572 61.2023 25.8596 61.2116C26.2803 62.996 27.4187 64.4493 29.1502 65.414C30.5436 66.1919 32.2781 66.603 34.1662 66.603C35.2607 66.603 36.407 66.4648 37.5719 66.1921C40.2039 65.5782 42.6961 64.3171 44.591 62.6404C46.7896 60.6923 48.0004 58.3484 48.0004 56.0406C48.0004 55.5448 47.9434 55.0538 47.8336 54.5927C47.4988 53.1452 46.6887 51.915 45.4701 50.9855V38.7755L70.5021 34.3265V45.6991C68.8363 45.4165 66.9689 45.4863 65.058 45.9333C62.4256 46.5474 59.9332 47.8085 58.0389 49.4851C55.8402 51.4331 54.6295 53.7771 54.6295 56.0849C54.6295 56.58 54.6863 57.0704 54.7961 57.5331C55.2092 59.3175 56.3482 60.7736 58.0848 61.7411C59.473 62.5204 61.207 62.9323 63.099 62.9323C64.1977 62.9323 65.3457 62.7941 66.5102 62.5214C69.132 61.9099 71.6234 60.6497 73.5293 58.9696C75.7279 57.0216 76.9387 54.6777 76.9387 52.3698C76.9385 51.8743 76.8814 51.3833 76.7719 50.922ZM42.0012 59.7159C40.5842 60.9698 38.6961 61.9187 36.683 62.3884C34.4623 62.9079 32.3963 62.7525 31.0529 62.0025C30.299 61.5825 29.8318 61.0193 29.6646 60.3284C29.6201 60.1216 29.5975 59.929 29.5975 59.7558C29.5975 58.6017 30.3625 57.2618 31.6959 56.0806C33.1123 54.8269 35.0004 53.878 37.0125 53.4085C37.0131 53.4085 37.0135 53.4083 37.0139 53.4083C39.2334 52.889 41.3006 53.0441 42.6437 53.7943C43.4021 54.2167 43.8678 54.7818 44.0305 55.4851C44.0727 55.6622 44.0939 55.8493 44.0939 56.0411C44.0939 57.1978 43.3309 58.5376 42.0012 59.7159ZM45.4701 34.8083V28.2732L70.5021 23.8241V30.3593L45.4701 34.8083ZM70.9424 56.0427C69.5369 57.2818 67.5979 58.2566 65.6213 58.7175C63.4078 59.2359 61.332 59.0843 59.9914 58.3318C59.2291 57.907 58.7613 57.3417 58.5994 56.6419C58.5572 56.4642 58.5359 56.2767 58.5359 56.0847C58.5359 54.9275 59.299 53.5876 60.6289 52.4095C62.0453 51.1558 63.9334 50.207 65.9455 49.7376C65.9461 49.7374 65.9465 49.7374 65.9471 49.7372C66.8217 49.5325 67.6701 49.4286 68.4693 49.4286C69.6926 49.4286 70.7684 49.6685 71.5822 50.123C72.3406 50.5454 72.8062 51.1105 72.9689 51.8138C73.0111 51.9909 73.0324 52.178 73.0324 52.3698C73.0322 53.5273 72.2691 54.8669 70.9424 56.0427Z" fill="white"/>
</g>
<defs>
<filter id="filter0_d_23_2" x="0" y="0" width="108" height="84.48" filterUnits="userSpaceOnUse" color-interpolation-filters="sRGB">
<feFlood flood-opacity="0" result="BackgroundImageFix"/>
<feColorMatrix in="SourceAlpha" type="matrix" values="0 0 0 0 0 0 0 0 0 0 0 0 0 0 0 0 0 0 127 0" result="hardAlpha"/>
<feOffset dy="4"/>
<feGaussianBlur stdDeviation="2"/>
<feColorMatrix type="matrix" values="0 0 0 0 0 0 0 0 0 0 0 0 0 0 0 0 0 0 1 0"/>
<feBlend mode="normal" in2="BackgroundImageFix" result="effect1_dropShadow_23_2"/>
<feBlend mode="normal" in="SourceGraphic" in2="effect1_dropShadow_23_2" result="shape"/>
</filter>
</defs>
</svg>
