<svg width="108" height="97" viewBox="0 0 108 97" fill="none" xmlns="http://www.w3.org/2000/svg">
<g filter="url(#filter0_d_22_666)">
<path d="M93.1932 19.9238V11.9133C93.1932 5.34414 87.849 0 81.2803 0H26.7143C20.1455 0 14.8014 5.34414 14.8014 11.9133V19.924C8.83242 20.001 4 24.8777 4 30.8645V77.249C4 83.2836 8.90957 88.1934 14.9441 88.1934H93.0559C99.0904 88.1934 104 83.2836 104 77.249V30.8645C104 24.8758 99.1645 19.9979 93.1932 19.9238ZM18.7076 11.9133C18.7076 7.49824 22.2994 3.90625 26.7143 3.90625H81.2803C85.6951 3.90625 89.2869 7.49824 89.2869 11.9133V19.9203H78.7268V17.1008C78.7268 13.3924 75.7098 10.3752 72.0014 10.3752H35.9932C32.2879 10.3752 29.2734 13.3922 29.2734 17.1008V19.9203H18.7076V11.9133ZM47.0535 19.9203V14.2816H60.941V19.9203H47.0535ZM33.1795 19.9203V17.1008C33.1795 15.5463 34.4416 14.2814 35.993 14.2814H43.1471V19.9201H33.1795V19.9203ZM64.8473 14.2816H72.0014C73.5559 14.2816 74.8205 15.5465 74.8205 17.101V19.9205H64.8475V14.2816H64.8473ZM100.094 77.249C100.094 81.1299 96.9365 84.2871 93.0559 84.2871H14.9441C11.0635 84.2871 7.90625 81.1299 7.90625 77.249V30.8645C7.90625 26.9838 11.0635 23.8266 14.9441 23.8266H93.0559C96.9365 23.8266 100.094 26.9838 100.094 30.8645V77.249Z" fill="white"/>
<path d="M24.0734 40.6352H83.9209C84.9994 40.6352 85.874 39.7605 85.874 38.682V30.1725C85.874 29.0939 84.9994 28.2193 83.9209 28.2193H24.0734C22.9949 28.2193 22.1203 29.0939 22.1203 30.1725V38.682C22.1203 39.7607 22.9949 40.6352 24.0734 40.6352ZM26.0266 32.1256H81.9678V36.7289H26.0266V32.1256Z" fill="white"/>
<path d="M84.7852 51.8365C81.2457 51.0328 77.6047 51.6553 74.5336 53.5896C73.5 54.2406 72.5756 55.0162 71.7693 55.8906H36.2252C35.4189 55.0162 34.4945 54.2406 33.4609 53.5896C30.3898 51.6555 26.7496 51.0326 23.2094 51.8365C15.9029 53.4953 11.3084 60.7902 12.9676 68.0978C13.7713 71.6377 15.9053 74.6525 18.9768 76.5869C21.1727 77.9699 23.6596 78.6822 26.1928 78.6822C27.2023 78.6822 28.2197 78.5691 29.2285 78.34C32.0184 77.7066 34.4107 76.2498 36.2127 74.2859H71.7852C73.5879 76.2496 75.9813 77.7064 78.7719 78.34C79.7809 78.5691 80.7979 78.6822 81.8076 78.6822C84.3408 78.6822 86.8279 77.9699 89.0236 76.5869C92.0951 74.6525 94.2289 71.6377 95.0328 68.0978C96.6912 60.7908 92.0943 53.4959 84.7852 51.8365ZM28.3635 74.5305C25.841 75.1035 23.2467 74.6596 21.0582 73.2812C18.8699 71.9031 17.3494 69.7551 16.7768 67.2328C15.5945 62.0256 18.8682 56.8277 24.074 55.6457C24.7932 55.4824 25.518 55.4018 26.2373 55.4018C28.0424 55.4018 29.8145 55.9096 31.3791 56.8949C33.5676 58.2732 35.0881 60.4213 35.6607 62.9434C36.843 68.1506 33.5695 73.3486 28.3635 74.5305ZM69.1182 70.016C69.1588 70.1357 69.2033 70.2566 69.2555 70.3797H38.7389C38.7768 70.2904 38.809 70.2008 38.8379 70.1105C39.8244 67.6418 40.1018 64.8617 39.4701 62.0787C39.2918 61.2936 39.0445 60.5359 38.7397 59.8086C38.7383 59.8047 38.7379 59.801 38.7363 59.7971H69.2578C69.2565 59.8004 69.2565 59.8043 69.2553 59.8076C68.9502 60.5354 68.7027 61.2932 68.5242 62.0789C67.9006 64.8258 68.1617 67.5711 69.1182 70.016ZM91.2233 67.233C90.6506 69.7553 89.1301 71.9033 86.9418 73.2814C84.7533 74.6598 82.1592 75.1035 79.6365 74.5307C74.4277 73.348 71.1518 68.1502 72.3336 62.9436C72.9063 60.4215 74.4268 58.2734 76.6152 56.8951C78.1799 55.9096 79.9518 55.402 81.757 55.402C82.4766 55.402 83.2016 55.4826 83.9203 55.6459C89.1291 56.8285 92.4053 62.0264 91.2233 67.233Z" fill="white"/>
<path d="M38.3793 45.3158C37.3008 45.3158 36.4262 46.1904 36.4262 47.2689C36.4262 48.3475 37.3008 49.2221 38.3793 49.2221H42.2713C43.3498 49.2221 44.2244 48.3475 44.2244 47.2689C44.2244 46.1904 43.3498 45.3158 42.2713 45.3158H38.3793Z" fill="white"/>
<path d="M52.0539 45.3158C50.9754 45.3158 50.1008 46.1904 50.1008 47.2689C50.1008 48.3475 50.9754 49.2221 52.0539 49.2221H55.9461C57.0246 49.2221 57.8992 48.3475 57.8992 47.2689C57.8992 46.1904 57.0246 45.3158 55.9461 45.3158H52.0539Z" fill="white"/>
<path d="M65.723 45.3158C64.6445 45.3158 63.7699 46.1904 63.7699 47.2689C63.7699 48.3475 64.6445 49.2221 65.723 49.2221H69.615C70.6935 49.2221 71.5681 48.3475 71.5681 47.2689C71.5681 46.1904 70.6935 45.3158 69.615 45.3158H65.723Z" fill="white"/>
<path d="M28.1649 63.1322H24.2729C23.1943 63.1322 22.3197 64.0068 22.3197 65.0854C22.3197 66.1639 23.1943 67.0385 24.2729 67.0385H28.1649C29.2434 67.0385 30.118 66.1639 30.118 65.0854C30.118 64.0068 29.2434 63.1322 28.1649 63.1322Z" fill="white"/>
<path d="M83.7217 63.1322H79.8353C78.7568 63.1322 77.8822 64.0068 77.8822 65.0854C77.8822 66.1639 78.7568 67.0385 79.8353 67.0385H83.7217C84.8002 67.0385 85.6748 66.1639 85.6748 65.0854C85.6748 64.0068 84.8002 63.1322 83.7217 63.1322Z" fill="white"/>
</g>
<defs>
<filter id="filter0_d_22_666" x="0" y="0" width="108" height="96.1934" filterUnits="userSpaceOnUse" color-interpolation-filters="sRGB">
<feFlood flood-opacity="0" result="BackgroundImageFix"/>
<feColorMatrix in="SourceAlpha" type="matrix" values="0 0 0 0 0 0 0 0 0 0 0 0 0 0 0 0 0 0 127 0" result="hardAlpha"/>
<feOffset dy="4"/>
<feGaussianBlur stdDeviation="2"/>
<feColorMatrix type="matrix" values="0 0 0 0 0 0 0 0 0 0 0 0 0 0 0 0 0 0 1 0"/>
<feBlend mode="normal" in2="BackgroundImageFix" result="effect1_dropShadow_22_666"/>
<feBlend mode="normal" in="SourceGraphic" in2="effect1_dropShadow_22_666" result="shape"/>
</filter>
</defs>
</svg>
