<svg width="101" height="100" viewBox="0 0 101 100" fill="none" xmlns="http://www.w3.org/2000/svg">
<path d="M23.346 90.9221C22.6007 90.608 21.7415 90.9582 21.4276 91.7037L18.7909 97.9662C18.4771 98.7117 18.8269 99.5707 19.5726 99.8846C19.7581 99.9627 19.9509 99.9998 20.1403 99.9998C20.712 99.9998 21.2552 99.6629 21.4911 99.1029L24.1278 92.8405C24.4415 92.0949 24.0917 91.2362 23.346 90.9221Z" fill="white"/>
<path d="M28.6075 78.4265C27.8618 78.1126 27.003 78.4626 26.6891 79.2081L24.0645 85.4415C23.7507 86.187 24.1005 87.0459 24.8462 87.3598C25.0317 87.4379 25.2245 87.475 25.414 87.475C25.9856 87.475 26.5288 87.1381 26.7647 86.5782L29.3893 80.3448C29.7032 79.5993 29.3532 78.7403 28.6075 78.4265Z" fill="white"/>
<path d="M33.7946 66.1075C33.0487 65.7935 32.1899 66.1437 31.876 66.8892L29.3387 72.9151C29.0247 73.6608 29.3745 74.5196 30.1202 74.8335C30.3059 74.9116 30.4985 74.9487 30.688 74.9487C31.2596 74.9487 31.8028 74.6118 32.0387 74.0519L34.576 68.0259C34.8901 67.2804 34.5401 66.4214 33.7946 66.1075Z" fill="white"/>
<path d="M34.1934 90.9221C33.4481 90.608 32.5889 90.9582 32.2751 91.7037L29.6384 97.9662C29.3245 98.7117 29.6743 99.5707 30.42 99.8846C30.6055 99.9627 30.7983 99.9998 30.9878 99.9998C31.5594 99.9998 32.1026 99.6629 32.3385 99.1029L34.9753 92.8405C35.2893 92.0949 34.9393 91.2362 34.1934 90.9221Z" fill="white"/>
<path d="M12.4986 90.9221C11.7527 90.608 10.8939 90.9582 10.58 91.7037L7.94333 97.9664C7.62946 98.7119 7.97927 99.5709 8.72477 99.8848C8.91052 99.9629 9.10309 100 9.29254 100C9.86422 100 10.4074 99.6631 10.6433 99.1031L13.2802 92.8407C13.5941 92.095 13.2443 91.2362 12.4986 90.9221Z" fill="white"/>
<path d="M17.7601 78.4265C17.0146 78.1126 16.1556 78.4626 15.8417 79.2081L13.2171 85.4415C12.9032 86.187 13.2531 87.0459 13.9988 87.3598C14.1843 87.4379 14.3771 87.475 14.5665 87.475C15.1382 87.475 15.6814 87.1381 15.9173 86.5782L18.5419 80.3448C18.8554 79.5993 18.5058 78.7403 17.7601 78.4265Z" fill="white"/>
<path d="M22.9472 66.1075C22.2015 65.7935 21.3425 66.1437 21.0286 66.8892L18.4913 72.9151C18.1773 73.6608 18.5273 74.5196 19.2728 74.8335C19.4585 74.9116 19.6511 74.9487 19.8405 74.9487C20.4122 74.9487 20.9554 74.6118 21.1913 74.0519L23.7286 68.0259C24.0423 67.2804 23.6927 66.4214 22.9472 66.1075Z" fill="white"/>
<path d="M39.4549 78.4265C38.7092 78.1126 37.8504 78.4626 37.5366 79.2081L34.912 85.4415C34.5981 86.187 34.9479 87.0459 35.6936 87.3598C35.8791 87.4379 36.0719 87.475 36.2614 87.475C36.8331 87.475 37.3762 87.1381 37.6122 86.5782L40.2368 80.3448C40.5506 79.5993 40.2006 78.7403 39.4549 78.4265Z" fill="white"/>
<path d="M44.642 66.1075C43.8961 65.7935 43.0375 66.1437 42.7235 66.8892L40.1862 72.9151C39.8721 73.6608 40.2221 74.5196 40.9676 74.8335C41.1533 74.9116 41.3459 74.9487 41.5354 74.9487C42.1071 74.9487 42.6502 74.6118 42.8862 74.0519L45.4235 68.0259C45.7375 67.2804 45.3875 66.4214 44.642 66.1075Z" fill="white"/>
<path d="M45.0412 90.9221C44.2957 90.608 43.4367 90.9582 43.1229 91.7037L40.4862 97.9662C40.1723 98.7117 40.5221 99.5707 41.2678 99.8846C41.4533 99.9627 41.6461 99.9998 41.8356 99.9998C42.4072 99.9998 42.9504 99.6629 43.1863 99.1029L45.823 92.8405C46.1367 92.0949 45.7869 91.2362 45.0412 90.9221Z" fill="white"/>
<path d="M50.3025 78.4265C49.5566 78.1126 48.6978 78.4626 48.384 79.2081L45.7594 85.4415C45.4455 86.187 45.7953 87.0459 46.541 87.3598C46.7266 87.4379 46.9193 87.475 47.1088 87.475C47.6805 87.475 48.2236 87.1381 48.4596 86.5782L51.0842 80.3448C51.398 79.5993 51.048 78.7403 50.3025 78.4265Z" fill="white"/>
<path d="M55.4894 66.1075C54.7445 65.7937 53.8849 66.1435 53.5711 66.8892L51.0338 72.9151C50.7199 73.6608 51.0697 74.5196 51.8154 74.8335C52.001 74.9116 52.1937 74.9487 52.3832 74.9487C52.9549 74.9487 53.498 74.6118 53.7338 74.0519L56.2711 68.0259C56.5849 67.2804 56.2351 66.4214 55.4894 66.1075Z" fill="white"/>
<path d="M55.8887 90.9221C55.1435 90.6084 54.2842 90.9582 53.9703 91.7037L51.3334 97.9662C51.0195 98.7117 51.3695 99.5707 52.115 99.8846C52.3006 99.9627 52.4933 99.9998 52.6828 99.9998C53.2545 99.9998 53.7976 99.6629 54.0334 99.1029L56.6703 92.8405C56.9842 92.0949 56.6344 91.2362 55.8887 90.9221Z" fill="white"/>
<path d="M61.1499 78.4265C60.405 78.1128 59.5457 78.4626 59.2316 79.2081L56.607 85.4415C56.2931 86.187 56.6431 87.0459 57.3886 87.3598C57.5742 87.4379 57.767 87.475 57.9564 87.475C58.5281 87.475 59.0713 87.1381 59.307 86.5782L61.9316 80.3448C62.2455 79.5993 61.8955 78.7403 61.1499 78.4265Z" fill="white"/>
<path d="M66.3368 66.1075C65.5919 65.7937 64.7326 66.1435 64.4185 66.8892L61.8814 72.9151C61.5675 73.6608 61.9175 74.5196 62.663 74.8335C62.8486 74.9116 63.0413 74.9487 63.2308 74.9487C63.8025 74.9487 64.3456 74.6118 64.5814 74.0519L67.1185 68.0259C67.4324 67.2804 67.0824 66.4214 66.3368 66.1075Z" fill="white"/>
<path d="M66.7361 90.9221C65.9911 90.6084 65.1316 90.9582 64.8177 91.7037L62.1808 97.9662C61.8669 98.7117 62.2169 99.5707 62.9624 99.8846C63.148 99.9627 63.3408 99.9998 63.5302 99.9998C64.1019 99.9998 64.645 99.6629 64.8808 99.1029L67.5177 92.8405C67.8317 92.0949 67.4818 91.2362 66.7361 90.9221Z" fill="white"/>
<path d="M71.9974 78.4265C71.2523 78.1128 70.3929 78.4626 70.079 79.2081L67.4544 85.4415C67.1406 86.187 67.4905 87.0459 68.2361 87.3598C68.4216 87.4379 68.6144 87.475 68.8038 87.475C69.3755 87.475 69.9187 87.1381 70.1544 86.5782L72.779 80.3448C73.0929 79.5993 72.7429 78.7403 71.9974 78.4265Z" fill="white"/>
<path d="M77.1846 66.1077C76.4399 65.7939 75.5802 66.1437 75.2663 66.8894L72.729 72.9153C72.4151 73.6608 72.7649 74.5198 73.5106 74.8337C73.6962 74.9118 73.889 74.9489 74.0784 74.9489C74.6501 74.9489 75.1932 74.612 75.429 74.0521L77.9663 68.0261C78.2801 67.2806 77.9303 66.4216 77.1846 66.1077Z" fill="white"/>
<path d="M81.2268 22.3501C81.2268 22.3501 81.1587 21.9898 81.1186 21.7237C80.3112 16.1644 77.6597 11.0513 73.5288 7.16111C68.8927 2.79511 62.8302 0.390625 56.4578 0.390625C49.452 0.390625 42.7979 3.3369 38.0674 8.50348C37.4872 8.40915 36.902 8.33806 36.3125 8.29099L36.3071 8.29059C35.8438 8.24684 34.8116 8.21911 34.5387 8.21911C25.044 8.21911 16.6111 14.4402 13.7576 23.4439C13.2796 23.611 12.8068 23.7944 12.341 23.998C12.2894 24.0204 12.2404 24.0462 12.1929 24.0737C9.07554 25.4735 6.30954 27.6661 4.24704 30.4102C1.59666 33.9368 0.195496 38.1389 0.195496 42.5623C0.195496 53.7297 9.28081 62.8148 20.448 62.8148H79.9425C91.1098 62.8148 100.195 53.7295 100.195 42.5623C100.195 31.8259 91.7985 23.0144 81.2268 22.3501ZM79.9429 59.8851H20.4482C10.8962 59.8851 3.12537 52.1141 3.12537 42.5623C3.12537 38.779 4.32322 35.1854 6.58922 32.1704C8.78199 29.2528 11.9007 27.0612 15.3714 25.9989C15.3822 25.9956 15.3921 25.9907 15.4029 25.987C16.5714 25.6317 17.7759 25.3997 19.0038 25.2985C19.8101 25.2319 20.4099 24.5245 20.3433 23.7183C20.2767 22.912 19.5685 22.3118 18.763 22.3788C18.2415 22.4218 17.7239 22.4866 17.2101 22.5691C20.1564 15.7361 26.9552 11.1486 34.5389 11.1486C35.81 11.1486 37.0834 11.2765 38.3243 11.5289C38.3311 11.5302 38.3377 11.5302 38.3446 11.5316C39.5297 11.774 40.6891 12.13 41.8145 12.6001C41.9991 12.6775 42.1905 12.7138 42.3787 12.7138C42.952 12.7138 43.4961 12.3753 43.7309 11.8134C44.0428 11.067 43.6905 10.2089 42.944 9.89703C42.4287 9.6818 41.9073 9.48746 41.3803 9.31344C45.4502 5.47986 50.8258 3.3203 56.4578 3.3203C68.0027 3.3203 77.6417 12.349 78.402 23.8747C78.4077 23.9612 78.4614 26.3229 78.4294 26.8095C78.3763 27.6167 78.9876 28.3141 79.795 28.3673C79.8276 28.3696 79.8602 28.3706 79.8927 28.3706C80.6577 28.3706 81.302 27.7765 81.353 27.0019C81.3893 26.4517 81.4075 25.8925 81.4075 25.3401C81.4075 25.3272 81.4069 25.3144 81.4069 25.3015C90.2762 26.047 97.2656 33.5034 97.2656 42.5623C97.2656 52.1141 89.4946 59.8851 79.9429 59.8851Z" fill="white"/>
<path d="M27.0044 23.0722C26.4501 22.8763 25.8815 22.703 25.3147 22.5571C24.5319 22.3558 23.7327 22.8274 23.5312 23.611C23.3296 24.3946 23.8015 25.1931 24.5851 25.3946C25.069 25.5192 25.5548 25.6673 26.0286 25.8345C26.1901 25.8915 26.3546 25.9186 26.5167 25.9186C27.1202 25.9186 27.6854 25.5427 27.8979 24.9413C28.1671 24.1784 27.7673 23.3417 27.0044 23.0722Z" fill="white"/>
<path d="M78.8993 31.3964C78.1366 31.127 77.2997 31.5267 77.0302 32.2893C76.7919 32.9634 76.5169 33.6343 76.2128 34.2831C75.8696 35.0157 76.185 35.888 76.9177 36.2311C77.1186 36.3253 77.33 36.37 77.5382 36.37C78.0888 36.37 78.6165 36.0579 78.8655 35.5264C79.2102 34.7907 79.5219 34.0302 79.7921 33.2657C80.0616 32.5028 79.6622 31.6659 78.8993 31.3964Z" fill="white"/>
</svg>
