<svg width="108" height="100" viewBox="0 0 108 100" fill="none" xmlns="http://www.w3.org/2000/svg">
<g clip-path="url(#clip0_9_4875)" filter="url(#filter0_d_9_4875)">
<path d="M85.53 87.4173C84.5331 87.2677 83.5374 87.1089 82.5704 86.9452C81.7718 86.8096 81.0165 87.3475 80.8816 88.145C80.7466 88.9426 81.2837 89.6987 82.0814 89.8336C83.0663 90.0004 84.0804 90.1624 85.0954 90.3145C85.169 90.3256 85.2423 90.3309 85.3145 90.3309C86.0274 90.3309 86.6524 89.8096 86.7614 89.0833C86.8813 88.2833 86.33 87.5372 85.53 87.4173Z" fill="white"/>
<path d="M102.723 78.0195C93.0979 76.7703 81.2886 72.9056 71.133 67.6813C60.0643 61.9873 52.02 55.3448 48.482 48.9777C46.1726 44.822 45.8439 40.866 47.5046 37.2197C48.5626 34.8969 50.4972 33.2436 53.2552 32.3057C54.7714 31.7901 56.1435 31.6364 56.8364 31.5903C56.9651 31.7723 57.0929 31.9551 57.2169 32.141C58.4186 33.9438 60.1296 34.9115 62.0383 34.9115C62.4719 34.9115 62.9159 34.8615 63.3663 34.7602C66.2086 34.1201 68.5809 31.5369 69.0069 28.618C69.451 25.5745 67.7735 22.7442 64.404 20.8532C64.0309 20.6438 63.6547 20.4452 63.2776 20.2519C63.0255 19.0161 61.9456 15.0593 58.0954 12.3302C54.3571 9.68062 49.2251 9.00504 42.8418 10.3238C34.2084 12.1064 25.6888 17.1675 16.7962 25.7963C16.2156 26.3598 16.2017 27.2872 16.765 27.8676C17.0523 28.1637 17.4341 28.3123 17.8163 28.3123C18.1839 28.3123 18.5519 28.1749 18.8363 27.8989C27.3169 19.6698 35.3629 14.8593 43.434 13.1927C48.966 12.0501 53.3157 12.5552 56.3626 14.6933C58.0606 15.8849 59.0702 17.4114 59.6606 18.6669C59.1108 18.4665 58.5593 18.2831 58.0071 18.1181C57.2313 17.8853 56.4159 18.3267 56.1841 19.1019C55.9523 19.877 56.3929 20.6931 57.1681 20.9249C59.1243 21.5097 61.0762 22.345 62.97 23.4079C65.2897 24.7098 66.3748 26.3653 66.1077 28.195C65.8584 29.9024 64.3713 31.5309 62.7223 31.9022C61.4854 32.1807 60.4532 31.7147 59.6542 30.516C56.9108 26.401 53.1155 23.1048 48.9675 21.2347C47.9666 20.7833 46.958 20.42 45.947 20.1431C47.6677 19.8882 49.44 19.7862 51.2503 19.8864C52.0583 19.9335 52.7491 19.3128 52.7941 18.5052C52.839 17.6976 52.2204 17.0062 51.4126 16.9614C43.4066 16.5148 34.8561 19.5501 26.6893 25.7325C21.5575 29.6174 18.1134 33.5529 17.0511 34.8291C14.9439 35.3803 12.7447 36.1725 10.5508 37.2133C11.7295 35.682 13.1615 33.9256 14.8265 32.0713C15.3669 31.4694 15.3171 30.5432 14.7152 30.0028C14.1132 29.462 13.1871 29.512 12.6466 30.1139C7.36152 35.9996 4.39864 40.8302 4.21817 41.1269C3.9172 41.6146 3.91935 42.2556 4.27423 42.7505C4.74571 43.4078 5.66094 43.5585 6.31836 43.0869C10.2683 40.2533 14.9464 38.1904 19.4909 37.2781C22.3401 36.706 26.3184 36.4594 28.1534 37.6469C29.3721 38.4355 29.8389 39.5631 29.3713 40.5892C28.7411 41.9728 26.5552 42.9224 23.0921 41.9242C19.5323 40.8986 16.3579 40.9043 13.6566 41.9416C11.2273 42.8744 9.31443 44.6082 8.12499 46.956C6.9414 49.2919 6.57539 52.0515 7.09433 54.7261C7.5623 57.1382 8.72694 59.2878 10.4109 60.8852C9.7533 62.0793 9.22908 63.4164 8.86834 64.9059C7.86347 69.0549 8.68553 73.6238 11.2457 78.1183C13.1402 81.4445 15.3132 83.5667 15.4048 83.6554C15.6894 83.931 16.0568 84.0681 16.4238 84.0681C16.8064 84.0681 17.1888 83.9189 17.4761 83.6226C18.039 83.0413 18.0243 82.114 17.4433 81.5513C17.3658 81.4759 9.69764 73.9289 11.7156 65.5957C12.6963 61.5463 15.1095 58.6631 18.8884 57.0262C22.0526 55.6554 26.0778 55.2813 29.9315 55.9991C34.5491 56.8594 37.9498 59.1774 37.6736 61.2762C37.6027 61.8161 37.4033 62.1918 37.0643 62.4256C36.6334 62.7229 35.9572 62.801 35.2559 62.635C35.2129 62.6248 35.1699 62.6174 35.1272 62.6112C34.6119 61.9112 33.9475 61.2776 33.1377 60.7377C32.4649 60.2889 31.5551 60.4707 31.1065 61.144C30.6577 61.817 30.8395 62.7266 31.5127 63.1752C33.3352 64.3903 33.5534 65.843 33.4155 66.8481C33.2258 68.2291 32.2317 69.5111 31.0516 69.8959C30.1379 70.1935 29.2587 69.9131 28.4385 69.0617C25.1934 65.6942 21.1886 64.2274 17.9874 65.2338C15.8656 65.9008 14.4474 67.5469 14.097 69.75C13.9699 70.549 14.5146 71.2998 15.3136 71.4269C16.1113 71.5539 16.8634 71.0094 16.9904 70.2103C17.2107 68.825 18.132 68.2592 18.8661 68.0285C21.4202 67.226 24.4827 69.1783 26.3292 71.0943C27.4962 72.3053 28.9079 72.9398 30.3585 72.9398C30.8905 72.9398 31.428 72.8543 31.9602 72.6808C33.4698 72.1885 34.7491 71.05 35.5375 69.6012C36.9006 71.0539 39.2473 73.2427 42.8861 75.7011C48.6581 79.6009 58.9907 84.9966 75.4365 88.5555C75.541 88.5782 75.6451 88.5891 75.7478 88.5891C76.4226 88.5891 77.0297 88.1202 77.1781 87.4339C77.3492 86.6431 76.8471 85.8634 76.0562 85.6923C60.1993 82.2605 50.2607 77.1138 44.7156 73.4008C38.7568 69.4105 36.4649 66.1817 36.4196 66.1168C36.4033 66.0934 36.3854 66.0719 36.3682 66.0496C36.3615 65.9108 36.3502 65.7729 36.3346 65.6358C37.2195 65.5766 38.0469 65.3067 38.7279 64.8367C39.7586 64.126 40.3986 63.0268 40.5787 61.6579C40.8482 59.6092 39.8127 57.6028 37.6629 56.0089C35.8627 54.6739 33.3078 53.6475 30.4688 53.1185C23.997 51.913 16.513 53.2952 12.1068 58.4342C9.67967 55.8382 9.04901 51.6151 10.7392 48.2794C11.6519 46.4777 14.6044 42.5261 22.2817 44.7388C27.4227 46.2199 30.8864 44.3316 32.0383 41.8031C33.1184 39.4316 32.1971 36.7728 29.7458 35.1865C28.021 34.0705 25.1792 33.6502 21.7925 33.9699C23.4257 32.2926 25.7169 30.1371 28.5169 28.0233C30.5799 26.4659 33.093 24.8092 35.9352 23.3966C35.9438 23.3934 35.9526 23.3913 35.9612 23.388C39.7166 21.9378 43.798 22.1163 47.7642 23.9048C50.2673 25.0333 52.631 26.7618 54.6569 28.9164C51.6974 29.4649 47.0714 31.1033 44.8388 36.0049C42.7717 40.5437 43.1359 45.3871 45.9214 50.4001C54.1097 65.1358 82.23 78.3136 102.346 80.924C102.41 80.9324 102.474 80.9363 102.537 80.9363C103.262 80.9363 103.892 80.398 103.988 79.6597C104.091 78.8583 103.525 78.1236 102.723 78.0195Z" fill="white"/>
<path d="M41.1371 49.0462C40.905 48.4712 40.6935 47.8927 40.5087 47.3269C40.2576 46.5579 39.4302 46.1378 38.6615 46.3894C37.8924 46.6403 37.4726 47.4675 37.7238 48.2364C37.9291 48.8651 38.1633 49.5063 38.4201 50.1427C38.6504 50.7134 39.1992 51.0596 39.7791 51.0596C39.9617 51.0596 40.1472 51.0253 40.3269 50.9528C41.0771 50.6499 41.4398 49.7964 41.1371 49.0462Z" fill="white"/>
<path d="M45.8203 26.5954C45.368 25.9247 44.4572 25.7479 43.7867 26.2004C43.4639 26.4182 35.8876 31.6569 36.5411 42.2451C36.5891 43.022 37.2338 43.6197 38.0018 43.6197C38.0323 43.6197 38.0628 43.6187 38.0934 43.6168C38.9008 43.5669 39.5151 42.872 39.4653 42.0646C38.9178 33.1983 45.1557 28.8135 45.4291 28.6262C46.0967 28.1731 46.2721 27.2645 45.8203 26.5954Z" fill="white"/>
<path d="M37.6894 84.9936C36.7926 84.5762 35.9076 84.1256 35.0594 83.6542C34.3524 83.2612 33.4604 83.5161 33.0674 84.2229C32.6744 84.9301 32.9291 85.8221 33.6363 86.2149C34.5455 86.7202 35.4932 87.203 36.4531 87.6498C36.6531 87.743 36.8635 87.7869 37.0703 87.7869C37.6223 87.7869 38.151 87.4735 38.3992 86.9399C38.7408 86.2065 38.423 85.335 37.6894 84.9936Z" fill="white"/>
<path d="M29.9704 80.2781C24.9655 76.3361 22.9259 72.5631 22.9058 72.5256C22.5288 71.8117 21.645 71.5373 20.9296 71.9127C20.2134 72.2888 19.9374 73.1744 20.3136 73.8906C20.4054 74.0656 22.6249 78.2222 28.1577 82.5794C28.4262 82.7911 28.7458 82.8935 29.0632 82.8935C29.4965 82.8935 29.9258 82.7021 30.2149 82.3351C30.7155 81.6995 30.6059 80.7784 29.9704 80.2781Z" fill="white"/>
</g>
<defs>
<filter id="filter0_d_9_4875" x="0" y="0" width="108" height="108" filterUnits="userSpaceOnUse" color-interpolation-filters="sRGB">
<feFlood flood-opacity="0" result="BackgroundImageFix"/>
<feColorMatrix in="SourceAlpha" type="matrix" values="0 0 0 0 0 0 0 0 0 0 0 0 0 0 0 0 0 0 127 0" result="hardAlpha"/>
<feOffset dy="4"/>
<feGaussianBlur stdDeviation="2"/>
<feColorMatrix type="matrix" values="0 0 0 0 0 0 0 0 0 0 0 0 0 0 0 0 0 0 1 0"/>
<feBlend mode="normal" in2="BackgroundImageFix" result="effect1_dropShadow_9_4875"/>
<feBlend mode="normal" in="SourceGraphic" in2="effect1_dropShadow_9_4875" result="shape"/>
</filter>
<clipPath id="clip0_9_4875">
<rect width="100" height="100" fill="white" transform="translate(4)"/>
</clipPath>
</defs>
</svg>
