<svg width="108" height="102" viewBox="0 0 108 102" fill="none" xmlns="http://www.w3.org/2000/svg">
<g clip-path="url(#clip0_10_4949)" filter="url(#filter0_d_10_4949)">
<path d="M67.6318 91.9644C67.582 91.6439 66.377 84.005 63.1027 74.6497C58.6719 61.9905 52.8267 52.7632 45.7298 47.2239C38.8831 41.8797 30.2905 42.0836 25.7788 42.6803C20.1114 43.4299 14.8544 45.5344 12.0634 48.0876L6.36745 43.642C5.73034 43.1444 4.80944 43.2577 4.31159 43.8954C3.81374 44.5331 3.92722 45.4538 4.56511 45.9514L10.2608 50.3969C8.46219 53.7245 7.69715 59.3352 8.34597 65.0147C8.86277 69.537 10.7518 77.9216 17.5985 83.2656C24.6954 88.805 35.066 92.2343 48.422 93.4585C52.3111 93.8152 55.864 93.9246 58.7613 93.9246C63.2168 93.9246 66.1225 93.6656 66.3184 93.6476C66.7211 93.6107 67.0904 93.4089 67.3393 93.0902C67.5879 92.7714 67.6937 92.364 67.6318 91.9644ZM48.6892 90.5412C32.7609 89.0812 23.9704 84.5228 19.4007 80.9562C13.3972 76.2702 11.7212 68.7487 11.2565 64.6821C10.6544 59.4138 11.4186 54.8026 12.6157 52.2352L31.0722 66.6409L32.2937 76.5495C32.3851 77.2917 33.0165 77.8353 33.7456 77.8353C33.8056 77.8353 33.8659 77.8316 33.9269 77.8241C34.7296 77.7251 35.3003 76.9941 35.2013 76.1911L34.3384 69.1901L39.9839 73.5964C40.2515 73.8054 40.5689 73.9066 40.8841 73.9066C41.3197 73.9066 41.7509 73.713 42.0398 73.3429C42.5376 72.7052 42.4242 71.7845 41.7863 71.2868L26.0212 58.9819L37.5267 57.5638C38.3294 57.4647 38.9001 56.7337 38.8011 55.9307C38.7021 55.1276 37.9695 54.5573 37.1681 54.6561L22.755 56.4327L14.4142 49.9223C19.4265 45.8401 34.5392 42.2055 43.9273 49.5331C52.1941 55.9858 57.4045 67.2522 60.3201 75.5675C62.6586 82.2378 63.9342 88.131 64.4543 90.8388C61.7105 90.9917 55.7144 91.1851 48.6892 90.5412Z" fill="white"/>
<path d="M50.2185 77.8697L48.5314 76.5527C47.8937 76.0552 46.9732 76.1683 46.4753 76.806C45.9774 77.4437 46.0909 78.3642 46.7286 78.8621L48.4157 80.1791C48.6835 80.3881 49.0009 80.4893 49.3161 80.4893C49.7517 80.4893 50.1829 80.2957 50.4718 79.9256C50.9695 79.2883 50.856 78.3676 50.2185 77.8697Z" fill="white"/>
<path d="M103.78 22.3758C103.243 18.3153 101.761 14.5243 99.9361 12.3618L102.996 8.44163C103.494 7.80393 103.38 6.88322 102.742 6.38557C102.105 5.88811 101.184 6.00119 100.687 6.63889L97.6268 10.5588C95.0861 9.31409 91.0486 8.7969 86.9787 9.26175C83.6035 9.64749 77.3431 11.0604 73.3388 16.1909C69.2324 21.4524 66.6915 29.1217 65.7872 38.9864C65.121 46.2558 65.6269 51.9357 65.6488 52.1741C65.6857 52.5769 65.8876 52.9462 66.2062 53.195C66.4652 53.3974 66.783 53.5052 67.1074 53.5052C67.182 53.5052 67.2572 53.4995 67.3316 53.488C67.5681 53.4513 73.2011 52.5628 80.0908 50.1513C89.4406 46.8788 96.2639 42.5515 100.37 37.2903C104.375 32.16 104.225 25.744 103.78 22.3758ZM98.0611 35.4878C90.4721 45.2107 73.6908 49.2489 68.4658 50.2995C68.214 44.9772 68.0503 27.7282 75.6482 17.994C80.7359 11.4758 91.3299 11.1619 95.7764 12.9301L85.6226 25.9387L78.5213 26.8139C77.7185 26.913 77.1478 27.644 77.2468 28.4469C77.3383 29.1891 77.9697 29.7327 78.6988 29.7327C78.7588 29.7327 78.8191 29.729 78.8801 29.7216L83.0732 29.2048L80.4252 32.5973C79.9273 33.235 80.0408 34.1557 80.6787 34.6534C80.9463 34.8624 81.2636 34.9636 81.5789 34.9636C82.0144 34.9636 82.4457 34.77 82.7345 34.3999L91.1719 23.5903L92.0957 31.085C92.1871 31.8272 92.8186 32.3708 93.5477 32.3708C93.6076 32.3708 93.668 32.3671 93.7289 32.3596C94.5317 32.2606 95.1024 31.5296 95.0033 30.7266L93.7211 20.3243L98.086 14.7319C100.881 18.6165 103.149 28.9692 98.0611 35.4878Z" fill="white"/>
<path d="M78.6222 37.2881C77.9847 36.7905 77.0638 36.9038 76.5662 37.5415L75.6011 38.778C75.1033 39.4157 75.2168 40.3362 75.8545 40.834C76.1222 41.043 76.4396 41.1442 76.7548 41.1442C77.1904 41.1442 77.6216 40.9506 77.9105 40.5805L78.8755 39.344C79.3732 38.7065 79.2597 37.786 78.6222 37.2881Z" fill="white"/>
<path d="M20.4293 36.3822C16.232 33.3841 12.7246 29.3283 10.0049 24.3275C9.61816 23.6167 8.72851 23.354 8.01815 23.7405C7.30741 24.1269 7.04471 25.0163 7.43104 25.7273C10.3646 31.1212 14.165 35.5081 18.7264 38.7662C18.9844 38.9505 19.2818 39.039 19.5766 39.039C20.0338 39.039 20.484 38.8257 20.7699 38.4255C21.2401 37.7671 21.0875 36.8523 20.4293 36.3822Z" fill="white"/>
<path d="M7.33294 18.2829C7.02474 17.3778 6.88763 16.8376 6.88626 16.8321C6.68919 16.0481 5.89349 15.5721 5.11009 15.7678C4.32512 15.9639 3.84817 16.7594 4.04426 17.5442C4.05071 17.5704 4.20774 18.1944 4.5595 19.2272C4.76712 19.8366 5.33626 20.2202 5.94603 20.2202C6.10267 20.2202 6.26185 20.195 6.41849 20.1417C7.18431 19.8809 7.59369 19.0487 7.33294 18.2829Z" fill="white"/>
<path d="M34.2677 36.2276C30.9675 34.8132 27.9206 32.9606 25.2126 30.7216C24.5893 30.2063 23.6659 30.2934 23.1501 30.9171C22.6344 31.5407 22.7219 32.4639 23.3456 32.9794C26.2696 35.3968 29.5561 37.3956 33.1138 38.9204C33.3018 39.0011 33.4975 39.0392 33.6899 39.0392C34.2583 39.0392 34.7991 38.7063 35.037 38.1511C35.3558 37.4073 35.0112 36.5464 34.2677 36.2276Z" fill="white"/>
<path d="M20.7075 26.2331C19.75 25.0665 19.2785 24.2962 19.2649 24.2737C18.8477 23.5815 17.9493 23.3575 17.2563 23.7731C16.5625 24.1894 16.3375 25.089 16.7537 25.7829C16.7766 25.8212 17.3254 26.7304 18.4426 28.0917C18.7323 28.4446 19.1524 28.6273 19.5758 28.6273C19.903 28.6273 20.2319 28.5183 20.5043 28.2948C21.1297 27.7816 21.2207 26.8585 20.7075 26.2331Z" fill="white"/>
<path d="M97.5595 47.6378C97.0552 47.0051 96.1336 46.9007 95.5011 47.4048C89.3658 52.2921 80.7619 55.9454 74.6241 58.1495C73.8628 58.4229 73.4671 59.2618 73.7407 60.0231C73.9556 60.621 74.5187 60.9933 75.1195 60.9933C75.2839 60.9933 75.4509 60.9653 75.6146 60.9067C81.9603 58.628 90.8781 54.8333 97.3265 49.6964C97.9592 49.1923 98.0636 48.2706 97.5595 47.6378Z" fill="white"/>
<path d="M69.5935 61.3797C69.365 60.6041 68.5509 60.1605 67.7743 60.3892C65.8794 60.948 64.7114 61.2386 64.6999 61.2414C63.9145 61.4361 63.4358 62.2302 63.6304 63.0154C63.7956 63.6824 64.3933 64.1283 65.0509 64.1283C65.1675 64.1283 65.2858 64.1142 65.4042 64.0849C65.4538 64.0726 66.6396 63.7779 68.6028 63.199C69.3788 62.9703 69.8224 62.1556 69.5935 61.3797Z" fill="white"/>
<path d="M97.6246 55.5663C97.1689 54.8978 96.2578 54.7249 95.5893 55.1804C94.8281 55.6988 94.0398 56.2183 93.2471 56.7245C92.565 57.1599 92.365 58.0656 92.8004 58.7474C93.0799 59.1851 93.5531 59.4242 94.0365 59.4242C94.3062 59.4242 94.5791 59.3497 94.8232 59.1939C95.6408 58.6722 96.4533 58.1363 97.2383 57.6017C97.907 57.1462 98.0799 56.2349 97.6246 55.5663Z" fill="white"/>
<path d="M90.0562 60.3825C89.6621 59.6758 88.7697 59.4219 88.0634 59.8161C82.6777 62.817 78.664 64.4221 78.6242 64.4379C77.8724 64.7368 77.505 65.5881 77.8034 66.3399C78.0316 66.9145 78.5824 67.2645 79.1654 67.2645C79.3451 67.2645 79.5277 67.2311 79.7052 67.1608C79.8747 67.0934 83.9238 65.4766 89.4896 62.3751C90.1964 61.9813 90.45 61.0891 90.0562 60.3825Z" fill="white"/>
</g>
<defs>
<filter id="filter0_d_10_4949" x="0" y="0" width="108" height="108" filterUnits="userSpaceOnUse" color-interpolation-filters="sRGB">
<feFlood flood-opacity="0" result="BackgroundImageFix"/>
<feColorMatrix in="SourceAlpha" type="matrix" values="0 0 0 0 0 0 0 0 0 0 0 0 0 0 0 0 0 0 127 0" result="hardAlpha"/>
<feOffset dy="4"/>
<feGaussianBlur stdDeviation="2"/>
<feColorMatrix type="matrix" values="0 0 0 0 0 0 0 0 0 0 0 0 0 0 0 0 0 0 1 0"/>
<feBlend mode="normal" in2="BackgroundImageFix" result="effect1_dropShadow_10_4949"/>
<feBlend mode="normal" in="SourceGraphic" in2="effect1_dropShadow_10_4949" result="shape"/>
</filter>
<clipPath id="clip0_10_4949">
<rect width="100" height="100" fill="white" transform="translate(4)"/>
</clipPath>
</defs>
</svg>
